<svg width="217" height="66" viewBox="0 0 217 66" fill="none" xmlns="http://www.w3.org/2000/svg">
<g clip-path="url(#clip0_42_337)">
<mask id="mask0_42_337" style="mask-type:luminance" maskUnits="userSpaceOnUse" x="0" y="0" width="217" height="66">
<path d="M217 0H0V66H217V0Z" fill="white"/>
</mask>
<g mask="url(#mask0_42_337)">
<path d="M15.6867 16.39C17.1908 16.39 18.4101 15.1588 18.4101 13.64C18.4101 12.1212 17.1908 10.89 15.6867 10.89C14.1826 10.89 12.9633 12.1212 12.9633 13.64C12.9633 15.1588 14.1826 16.39 15.6867 16.39ZM15.6867 16.39C16.8424 16.39 17.9507 16.8536 18.7679 17.6788C19.5851 18.5039 20.0441 19.6231 20.0441 20.79M15.6867 16.39C14.5311 16.39 13.4227 16.8536 12.6055 17.6788C11.7884 18.5039 11.3293 19.6231 11.3293 20.79" stroke="black" stroke-width="1.5" stroke-linecap="round" stroke-linejoin="round"/>
<path d="M36.6024 46.86H37.9096C38.3018 46.86 38.5633 46.596 38.5633 46.2V44.22C38.5633 43.626 38.1057 43.098 37.5828 42.966C36.4063 42.636 34.6416 42.24 34.6416 42.24C34.6416 42.24 33.7919 41.316 33.2036 40.722C32.8768 40.458 32.4846 40.26 32.0271 40.26H27.4518C27.0596 40.26 26.7328 40.524 26.5367 40.854L25.6217 42.768C25.5352 43.0229 25.491 43.2905 25.491 43.56V46.2C25.491 46.596 25.7524 46.86 26.1446 46.86H27.4518M36.6024 46.86C36.6024 47.589 36.0172 48.18 35.2952 48.18C34.5732 48.18 33.988 47.589 33.988 46.86M36.6024 46.86C36.6024 46.131 36.0172 45.54 35.2952 45.54C34.5732 45.54 33.988 46.131 33.988 46.86M27.4518 46.86C27.4518 47.589 28.0371 48.18 28.759 48.18C29.481 48.18 30.0663 47.589 30.0663 46.86M27.4518 46.86C27.4518 46.131 28.0371 45.54 28.759 45.54C29.481 45.54 30.0663 46.131 30.0663 46.86M33.988 46.86H30.0663" stroke="black" stroke-width="1.5" stroke-linecap="round" stroke-linejoin="round"/>
<path d="M49.3479 20.7901V16.3901C49.3479 16.2442 49.2905 16.1044 49.1884 16.0012C49.0862 15.898 48.9477 15.8401 48.8033 15.8401H46.6245C46.48 15.8401 46.3415 15.898 46.2394 16.0012C46.1372 16.1044 46.0798 16.2442 46.0798 16.3901V20.7901M42.8118 14.7401C42.8117 14.5801 42.8463 14.4219 42.9129 14.2768C42.9797 14.1317 43.0769 14.003 43.1979 13.8997L47.0107 10.5997C47.2073 10.4318 47.4564 10.3398 47.7139 10.3398C47.9713 10.3398 48.2204 10.4318 48.417 10.5997L52.2298 13.8997C52.3508 14.003 52.4481 14.1317 52.5148 14.2768C52.5815 14.4219 52.6161 14.5801 52.616 14.7401V19.6901C52.616 19.9818 52.5012 20.2616 52.2969 20.4679C52.0926 20.6742 51.8156 20.7901 51.5266 20.7901H43.9011C43.6122 20.7901 43.3351 20.6742 43.1309 20.4679C42.9265 20.2616 42.8118 19.9818 42.8118 19.6901V14.7401Z" stroke="black" stroke-width="1.5" stroke-linecap="round" stroke-linejoin="round"/>
<path d="M15.6868 0.660034C23.9893 0.660034 30.7199 7.45638 30.7199 15.84C30.7199 24.2237 23.9893 31.02 15.6868 31.02C7.38422 31.02 0.653625 24.2237 0.653625 15.84V0.660034H15.6868ZM15.6868 5.94003C10.272 5.94003 5.88254 10.3724 5.88254 15.84C5.88254 21.3077 10.272 25.74 15.6868 25.74C21.1015 25.74 25.491 21.3077 25.491 15.84C25.491 10.3724 21.1015 5.94003 15.6868 5.94003Z" fill="#2C39C4"/>
<path d="M47.7139 0.660034C39.4113 0.660034 32.6807 7.45638 32.6807 15.84C32.6807 24.2237 39.4113 31.02 47.7139 31.02C56.0164 31.02 62.747 24.2237 62.747 15.84V0.660034H47.7139ZM47.7139 5.94003C53.1286 5.94003 57.5181 10.3724 57.5181 15.84C57.5181 21.3077 53.1286 25.74 47.7139 25.74C42.2991 25.74 37.9096 21.3077 37.9096 15.84C37.9096 10.3724 42.2991 5.94003 47.7139 5.94003Z" fill="#2C39C4"/>
<path d="M42.3479 54.6417C48.2187 48.7135 48.2187 39.102 42.3479 33.1739C36.4771 27.2457 26.9586 27.2457 21.0879 33.1739C15.217 39.102 15.217 48.7135 21.0879 54.6417L31.7179 65.3755L42.3479 54.6417ZM38.6505 50.9081C34.8218 54.7743 28.614 54.7743 24.7852 50.9081C20.9564 47.042 20.9564 40.7736 24.7852 36.9074C28.614 33.0413 34.8217 33.0413 38.6505 36.9074C42.4793 40.7736 42.4793 47.042 38.6505 50.9081Z" fill="#2C39C4"/>
<path d="M85.7215 51.8354V18.2604H73.8578V12.8203H103.462V18.2604H91.5988V51.8354H85.7215ZM105.612 51.8354V22.6016H110.89L111.108 30.3496L110.618 30.1848C111.018 27.5471 111.816 25.6238 113.013 24.4149C114.247 23.206 115.897 22.6016 117.965 22.6016H120.74V27.8219H117.965C116.514 27.8219 115.298 28.06 114.319 28.5362C113.339 29.0125 112.596 29.7451 112.088 30.7343C111.616 31.7233 111.38 33.0055 111.38 34.5808V51.8354H105.612ZM125.487 51.8354V22.6016H131.256V51.8354H125.487ZM125.379 18.3703V12.5455H131.365V18.3703H125.379ZM150.798 52.4948C148.04 52.4948 145.628 51.872 143.56 50.6265C141.492 49.3809 139.896 47.6042 138.771 45.2962C137.647 42.9883 137.084 40.2957 137.084 37.2184C137.084 34.1412 137.647 31.4669 138.771 29.1956C139.896 26.8877 141.492 25.1109 143.56 23.8654C145.628 22.5832 148.04 21.9421 150.798 21.9421C153.156 21.9421 155.242 22.3634 157.056 23.206C158.906 24.0119 160.394 25.2025 161.519 26.7778C162.679 28.3531 163.423 30.2764 163.749 32.5476L157.709 32.8774C157.418 30.9724 156.657 29.5254 155.424 28.5362C154.19 27.5105 152.648 26.9976 150.798 26.9976C148.367 26.9976 146.463 27.9134 145.083 29.7451C143.742 31.5402 143.07 34.0313 143.07 37.2184C143.07 40.4056 143.742 42.915 145.083 44.7467C146.463 46.5418 148.367 47.4393 150.798 47.4393C152.648 47.4393 154.19 46.9264 155.424 45.9007C156.657 44.8383 157.418 43.2447 157.709 41.12L163.749 41.4497C163.423 43.6843 162.679 45.6259 161.519 47.2745C160.394 48.923 158.906 50.2052 157.056 51.121C155.242 52.0369 153.156 52.4948 150.798 52.4948ZM177.705 52.4948C174.694 52.4948 172.282 51.7988 170.468 50.4067C168.69 49.0146 167.801 47.0547 167.801 44.527C167.801 41.9992 168.545 40.0393 170.033 38.6472C171.556 37.2184 173.896 36.1927 177.052 35.57L187.011 33.6467C187.011 31.3753 186.485 29.6902 185.433 28.5912C184.381 27.4555 182.821 26.8877 180.753 26.8877C178.903 26.8877 177.452 27.309 176.399 28.1516C175.347 28.9575 174.622 30.1664 174.223 31.7783L168.291 31.3937C168.835 28.4629 170.178 26.155 172.318 24.4699C174.495 22.7847 177.307 21.9421 180.753 21.9421C184.671 21.9421 187.646 23.0045 189.678 25.1293C191.746 27.2174 192.78 30.1664 192.78 33.9764V45.3512C192.78 46.0473 192.888 46.5418 193.106 46.8348C193.36 47.0913 193.759 47.2195 194.303 47.2195H195.337V51.8354C195.156 51.872 194.865 51.9087 194.467 51.9453C194.067 51.9819 193.65 52.0003 193.215 52.0003C191.982 52.0003 190.911 51.7988 190.004 51.3958C189.133 50.9928 188.48 50.3334 188.045 49.4176C187.61 48.465 187.392 47.2012 187.392 45.6259L187.991 45.9007C187.7 47.1829 187.066 48.3185 186.086 49.3077C185.143 50.2967 183.927 51.0844 182.44 51.6705C180.988 52.22 179.411 52.4948 177.705 52.4948ZM178.631 47.8789C180.372 47.8789 181.86 47.5492 183.093 46.8898C184.326 46.1938 185.288 45.2413 185.977 44.0323C186.666 42.8234 187.011 41.4497 187.011 39.911V38.0427L178.522 39.6913C176.781 40.0209 175.547 40.5522 174.821 41.2848C174.132 41.9809 173.787 42.8784 173.787 43.9774C173.787 45.223 174.205 46.1938 175.039 46.8898C175.91 47.5492 177.107 47.8789 178.631 47.8789ZM209.821 51.8354C207.064 51.8354 205.032 51.1943 203.726 49.9121C202.42 48.6299 201.768 46.6333 201.768 43.9225V15.7327H207.536V43.4828C207.536 44.8383 207.826 45.7725 208.406 46.2853C208.987 46.7982 209.876 47.0547 211.073 47.0547H215.209V51.8354H209.821ZM197.36 27.3823V22.6016H215.209V27.3823H197.36Z" fill="black"/>
</g>
</g>
<defs>
<clipPath id="clip0_42_337">
<rect width="217" height="66" fill="white"/>
</clipPath>
</defs>
</svg>
