<svg width="173" height="43" viewBox="0 0 173 43" fill="none" xmlns="http://www.w3.org/2000/svg">
<g clip-path="url(#clip0_341_2532)">
<path d="M15.7319 22.6638H9.83725L12.9767 12.4205L15.7319 22.6638ZM6.7798 33.9522L8.79219 27.2068H16.7338L18.6166 33.9349H25.9579L18.6641 8.28347C18.2323 6.7677 17.3254 6.06812 15.7319 6.06812H5.32018V8.49075H6.18386C7.27211 8.49075 7.85941 8.92259 7.85941 9.74741C7.85941 10.2959 7.7385 10.7536 7.30665 12.0016L-0.00012207 33.9522H6.7798Z" fill="#858585"/>
<path d="M34.4524 33.9522V8.20574C34.4524 6.86271 33.6664 6.06812 32.3666 6.06812H25.9105V8.49075H26.3424C27.4263 8.49075 27.8884 8.95282 27.8884 10.0497V33.9522H34.4524Z" fill="#858585"/>
<path d="M45.6111 33.9522V8.20574C45.6111 6.86271 44.8122 6.06812 43.521 6.06812H37.0865V8.49075H37.5184C38.6066 8.49075 39.0687 8.95282 39.0687 10.0497V33.9522H45.6111Z" fill="#858585"/>
<path d="M57.0594 8.61177C57.0594 6.74189 55.6732 5.58887 53.298 5.58887C50.9229 5.58887 49.528 6.72029 49.528 8.61177C49.528 10.5032 50.9574 11.6347 53.298 11.6347C55.6386 11.6347 57.0594 10.5119 57.0594 8.61177ZM56.9341 33.9523V15.1844C56.9341 13.8457 56.1396 13.0554 54.8397 13.0554H48.4873V15.4306H48.863C49.9469 15.4306 50.409 15.9315 50.409 17.0197V33.9523H56.9341Z" fill="#858585"/>
<path d="M71.3059 23.9163V27.9799C70.2133 29.107 68.8832 29.798 67.7561 29.798C66.629 29.798 66.167 29.2193 66.167 27.6388C66.167 26.0582 66.4952 25.3889 67.6698 24.9355C68.8394 24.4593 70.0592 24.1174 71.3059 23.9163ZM62.479 19.0365C64.485 18.0413 66.68 17.4848 68.9178 17.4041C70.6797 17.4041 71.3059 18.0303 71.3059 19.857V20.3234C68.6328 20.7552 67.795 20.9193 66.2879 21.2518C65.4437 21.4378 64.6173 21.6964 63.8177 22.0248C61.1792 23.0828 59.9312 25.1211 59.9312 28.252C59.9312 32.225 61.6585 34.1423 65.1953 34.1423C66.3984 34.1473 67.5914 33.923 68.7105 33.4816C69.7256 33.0196 70.6694 32.4146 71.5132 31.6852V31.9788C71.5132 33.2743 72.1782 33.935 73.478 33.935H79.4591V31.7024H79.1654C78.0383 31.7024 77.6237 31.1972 77.6237 29.8628V19.9088C77.6237 14.6015 75.7798 12.7532 70.4638 12.7532C68.7785 12.7616 67.0995 12.96 65.4587 13.3448C63.9085 13.6905 62.4153 14.2547 61.0237 15.0203L62.479 19.0365Z" fill="#858585"/>
<path d="M88.9811 33.9523V19.8224C90.0737 18.6089 91.1965 18.0605 92.492 18.0605C93.8782 18.0605 94.2194 18.6089 94.2194 20.712V33.9523H100.74V19.7446C100.74 16.4367 100.503 15.3917 99.4447 14.2689C98.581 13.2972 97.2293 12.8049 95.5063 12.8049C92.9541 12.8049 91.1576 13.5952 88.7436 15.8537V15.0203C88.7436 13.7248 88.0656 13.0554 86.7312 13.0554H80.5343V15.4305H80.91C81.9939 15.4305 82.4603 15.9315 82.4603 17.0197V33.9523H88.9811Z" fill="#858585"/>
<path d="M120.082 29.5649H110.983L119.685 17.3653V13.0469H106.039C104.493 13.0469 103.78 13.7551 103.78 15.3054V19.1056H106.203V18.7342C106.203 17.7712 106.704 17.3135 107.745 17.3135H112.434L103.642 29.6512V33.9696H120.052L120.082 29.5649Z" fill="#858585"/>
<path d="M154.315 33.421V9.79492C154.315 7.91209 153.645 7.27728 151.818 7.27728H146.287V9.93311H146.619C147.88 9.93311 148.126 10.2181 148.126 11.7382V33.421H154.315ZM157.044 33.421H163.185V15.0202C163.185 13.1719 162.472 12.5069 160.671 12.5069H157.044V33.421ZM145.414 33.421V12.5242H141.774C139.973 12.5242 139.269 13.1892 139.269 15.0375V33.421H145.414ZM168.997 21.4115C168.997 31.8232 161.509 39.3934 151.227 39.3934C140.945 39.3934 133.439 31.8232 133.439 21.4115C133.439 10.9998 140.94 3.42956 151.227 3.42956C161.513 3.42956 168.997 11.0429 168.997 21.4115ZM172.633 21.4115C172.633 9.16875 163.474 0.000732422 151.227 0.000732422C138.98 0.000732422 129.812 9.16875 129.812 21.4115C129.812 33.6542 138.971 42.8179 151.227 42.8179C163.483 42.8179 172.633 33.6844 172.633 21.4115Z" fill="#858585"/>
</g>
<defs>
<clipPath id="clip0_341_2532">
<rect width="172.633" height="42.8187" fill="white"/>
</clipPath>
</defs>
</svg>
