<svg width="227" height="61" viewBox="0 0 227 61" fill="none" xmlns="http://www.w3.org/2000/svg">
<g clip-path="url(#clip0_341_2615)">
<path d="M226.122 37.0383H0.674561V40.4266H226.122V37.0383Z" fill="#858585"/>
<path d="M6.36001 60.6812H4.84389L0.674561 48.7092H2.64552L5.52615 57.4435L8.40678 48.7092H10.5293L6.36001 60.6812Z" fill="#858585"/>
<path d="M12.3489 60.6812V48.7092H14.244V60.6812H12.3489Z" fill="#858585"/>
<path d="M17.5793 60.6812V48.7092H25.6148V50.3657H19.4745V53.8293H24.7051V55.4105H19.4745V59.0247H25.6148V60.6812H17.5793Z" fill="#858585"/>
<path d="M36.0762 60.6812L30.2391 52.2481V60.6812H28.344V48.7092H30.0875L35.9246 57.1423V48.7092H37.8197V60.6812H36.0762Z" fill="#858585"/>
<path d="M48.8875 60.6812L43.0504 52.2481V60.6812H41.1553V48.7092H42.8988L48.7359 57.1423V48.7092H50.631V60.6812H48.8875Z" fill="#858585"/>
<path d="M61.2438 60.6812L60.41 58.2717H55.4067L54.5729 60.6812H52.5261L57.1503 48.7092H58.6664L63.2906 60.6812H61.2438ZM57.9083 51.4199L55.9374 56.7658H59.8035L57.9083 51.4199Z" fill="#858585"/>
<path d="M69.4309 60.6812V48.7092H71.3261V60.6812H69.4309Z" fill="#858585"/>
<path d="M82.3936 60.6812L76.5565 52.2481V60.6812H74.6614V48.7092H76.4049L82.242 57.1423V48.7092H84.1371V60.6812H82.3936Z" fill="#858585"/>
<path d="M90.808 60.7563C88.9128 60.7563 87.5483 60.3045 86.3354 59.1751L87.6241 57.9704C88.5338 58.8739 89.5193 59.0998 90.808 59.0998C92.4757 59.0998 93.3854 58.4221 93.3854 57.2927C93.3854 56.7656 93.2338 56.3139 92.9306 56.0127C92.6273 55.7115 92.3241 55.6362 91.5661 55.4856L90.0499 55.2597C88.9887 55.1091 88.2306 54.808 87.6241 54.2809C87.0177 53.7538 86.7145 53.0009 86.7145 52.022C86.7145 49.9138 88.3064 48.4832 90.9596 48.4832C92.6274 48.4832 93.7644 48.8596 94.9015 49.8385L93.6886 50.9679C92.9306 50.2902 92.0209 50.0644 90.9596 50.0644C89.4435 50.0644 88.6854 50.8926 88.6854 51.9467C88.6854 52.3985 88.837 52.775 89.1403 53.0762C89.4435 53.3773 89.9741 53.5279 90.5806 53.6032L92.0209 53.8291C93.158 53.9797 93.8403 54.2809 94.3709 54.7327C95.0531 55.335 95.4322 56.1633 95.4322 57.2174C95.3564 59.4763 93.4612 60.7563 90.808 60.7563Z" fill="#858585"/>
<path d="M102.331 60.7565C99.7532 60.7565 97.7822 59.1 97.7822 56.6152V48.7092H99.6774V56.5399C99.6774 58.1211 100.663 59.1 102.255 59.1C103.847 59.1 104.832 58.1211 104.832 56.5399V48.7092H106.727V56.6905C106.803 59.1 104.832 60.7565 102.331 60.7565Z" fill="#858585"/>
<path d="M116.961 60.6812L114.308 55.6364H111.882V60.6812H109.987V48.7092H114.839C117.189 48.7092 118.781 50.1398 118.781 52.1728C118.781 53.9046 117.719 54.9587 116.279 55.3352L119.16 60.6059H116.961V60.6812ZM114.687 50.2904H111.882V54.0552H114.687C115.976 54.0552 116.81 53.3775 116.81 52.1728C116.885 51.0434 115.976 50.2904 114.687 50.2904Z" fill="#858585"/>
<path d="M128.863 60.6812L127.953 58.2717H122.95L122.116 60.6812H120.069L124.694 48.7092H126.21L130.834 60.6812H128.863ZM125.527 51.4199L123.556 56.7658H127.423L125.527 51.4199Z" fill="#858585"/>
<path d="M140.461 60.6812L134.624 52.2481V60.6812H132.729V48.7092H134.473L140.31 57.1423V48.7092H142.205V60.6812H140.461Z" fill="#858585"/>
<path d="M149.634 60.7562C148.345 60.7562 147.208 60.3044 146.298 59.4762C145.085 58.2714 145.085 56.9914 145.085 54.6573C145.085 52.3231 145.085 51.0431 146.298 49.8384C147.208 49.0101 148.269 48.5583 149.634 48.5583C151.225 48.5583 152.211 49.0854 153.121 49.989L151.832 51.1937C151.15 50.5913 150.619 50.2148 149.558 50.2148C148.8 50.2148 148.117 50.516 147.663 50.9678C147.056 51.6455 146.905 52.3231 146.905 54.7326C146.905 57.142 147.056 57.8197 147.663 58.4973C148.117 58.9491 148.8 59.2503 149.558 59.2503C150.619 59.2503 151.15 58.8738 151.832 58.2714L153.121 59.4762C152.211 60.2291 151.225 60.7562 149.634 60.7562Z" fill="#858585"/>
<path d="M155.774 60.6812V48.7092H163.809V50.3657H157.669V53.8293H162.9V55.4105H157.669V59.0247H163.809V60.6812H155.774Z" fill="#858585"/>
<path d="M178.288 59.4009C177.379 60.3044 176.242 60.7562 174.877 60.7562C173.589 60.7562 172.451 60.3044 171.542 59.4762C170.329 58.2714 170.329 56.9914 170.329 54.6573C170.329 52.3231 170.329 51.0431 171.542 49.8384C172.376 49.0101 173.513 48.5583 174.877 48.5583C176.621 48.5583 177.53 49.0854 178.668 50.1395L177.379 51.3443C176.545 50.5913 176.014 50.1395 174.877 50.1395C174.119 50.1395 173.437 50.4407 172.982 50.8925C172.376 51.5702 172.224 52.1725 172.224 54.582C172.224 56.9914 172.376 57.6691 172.982 58.3467C173.437 58.7985 174.119 59.0997 174.877 59.0997C175.711 59.0997 176.393 58.7985 176.924 58.2714C177.379 57.8197 177.53 57.142 177.53 56.3891V55.7114H174.877V54.1302H179.426V55.9373C179.426 57.5185 179.122 58.5726 178.288 59.4009Z" fill="#858585"/>
<path d="M189.129 60.6812L186.475 55.6364H184.125V60.6812H182.23V48.7092H187.082C189.508 48.7092 191.024 50.1398 191.024 52.1728C191.024 53.9046 189.962 54.9587 188.522 55.3352L191.403 60.6059H189.129V60.6812ZM186.93 50.2904H184.125V54.0552H186.93C188.219 54.0552 189.053 53.3775 189.053 52.1728C189.053 51.0434 188.219 50.2904 186.93 50.2904Z" fill="#858585"/>
<path d="M201.258 59.4762C200.424 60.3044 199.287 60.7562 197.922 60.7562C196.558 60.7562 195.496 60.3044 194.587 59.4762C193.374 58.2714 193.374 56.9914 193.374 54.6573C193.374 52.3231 193.374 51.0431 194.587 49.8384C195.496 49.0101 196.558 48.5583 197.922 48.5583C199.287 48.5583 200.348 49.0101 201.258 49.8384C202.47 51.0431 202.471 52.3231 202.471 54.6573C202.471 56.9914 202.47 58.3467 201.258 59.4762ZM199.817 50.9678C199.362 50.516 198.68 50.2148 197.922 50.2148C197.164 50.2148 196.482 50.516 196.027 50.9678C195.421 51.6455 195.269 52.2478 195.269 54.6573C195.269 57.0667 195.421 57.7444 196.027 58.3467C196.482 58.7985 197.164 59.0997 197.922 59.0997C198.68 59.0997 199.362 58.7985 199.817 58.3467C200.424 57.6691 200.575 57.0667 200.575 54.6573C200.5 52.2478 200.424 51.5702 199.817 50.9678Z" fill="#858585"/>
<path d="M209.672 60.7565C207.095 60.7565 205.124 59.1 205.124 56.6152V48.7092H207.019V56.5399C207.019 58.1211 208.08 59.1 209.596 59.1C211.188 59.1 212.25 58.1211 212.25 56.5399V48.7092H214.145V56.6905C214.145 59.1 212.174 60.7565 209.672 60.7565Z" fill="#858585"/>
<path d="M222.104 55.9376H219.224V60.6812H217.328V48.7092H222.104C224.53 48.7092 226.122 50.2904 226.122 52.3234C226.122 54.4317 224.53 55.9376 222.104 55.9376ZM222.028 50.2904H219.299V54.2811H222.028C223.393 54.2811 224.227 53.5281 224.227 52.2481C224.227 51.0434 223.317 50.2904 222.028 50.2904Z" fill="#858585"/>
<path d="M12.8036 26.0457C7.87626 26.0457 4.46498 22.8833 4.46498 18.3656C4.46498 13.9231 8.02787 10.6102 12.7278 10.6102C15.1536 10.6102 17.352 11.2878 19.9294 12.7184L20.2326 12.869V9.25484L20.081 9.17955C17.1246 7.97482 14.9262 7.44775 12.7278 7.44775C5.9053 7.44775 0.9021 12.1161 0.9021 18.5915C0.9021 22.6574 4.08595 29.1328 12.5004 29.1328C16.1391 29.1328 18.4891 28.2292 20.2326 27.2504L20.3084 27.1751V23.4103L20.081 23.7115C17.731 25.2174 15.1536 26.0457 12.8036 26.0457ZM33.8777 7.44775C27.2826 7.44775 22.3552 12.1161 22.3552 18.2903C22.3552 23.5609 26.3729 29.1328 33.8777 29.1328C41.4583 29.1328 45.4002 23.7115 45.4002 18.2903C45.4002 12.0408 40.5487 7.44775 33.8777 7.44775ZM33.8777 26.0457C29.3294 26.0457 25.8423 22.7327 25.8423 18.2903C25.8423 13.7726 29.2536 10.5349 33.8777 10.5349C38.5777 10.5349 41.9132 13.7726 41.9132 18.2903C41.9132 22.7327 38.4261 26.0457 33.8777 26.0457ZM58.2873 16.1067C57.984 15.7302 51.3889 7.67364 51.3889 7.67364H48.2809V28.8316H51.6921C51.6921 28.8316 51.6921 13.8479 51.6921 12.9443C52.2228 13.5467 57.9841 20.6997 57.9841 20.6997H58.6663C58.6663 20.6997 64.4276 13.5467 64.9582 12.9443C64.9582 13.7726 64.9582 28.8316 64.9582 28.8316H68.3695V7.74893H65.2614C65.2614 7.74893 58.5905 15.8055 58.2873 16.1067ZM79.513 7.74893H72.6904V28.9069H76.1017C76.1017 28.9069 76.1017 20.3232 76.1017 19.9468C76.4807 19.9468 79.0581 19.9468 79.0581 19.9468C83.6823 19.9468 86.4113 17.6879 86.4113 13.9231C86.4113 10.9113 84.592 7.74893 79.513 7.74893ZM79.3614 16.7844C79.3614 16.7844 76.4807 16.7844 76.1017 16.7844V10.7607C76.4807 10.7607 79.513 10.7607 79.513 10.7607C82.5452 10.7607 82.9242 12.869 82.9242 13.7726C82.9242 15.6549 81.6355 16.7844 79.3614 16.7844ZM92.4 19.7209C92.779 19.7209 101.042 19.7209 101.042 19.7209V16.6338C101.042 16.6338 92.7032 16.6338 92.4 16.6338V10.7607C92.779 10.7607 101.345 10.7607 101.345 10.7607V7.67364H88.9887V28.8316H101.648V25.7445C101.648 25.7445 92.779 25.7445 92.4 25.7445V19.7209ZM121.585 23.4856C120.979 22.7327 107.561 7.67364 107.561 7.67364H104.832V28.8316H108.092C108.092 28.8316 108.092 14.0737 108.092 13.1702C108.698 13.9231 121.964 28.8316 121.964 28.8316H124.845V7.74893H121.585C121.585 7.74893 121.585 22.5821 121.585 23.4856ZM135.155 16.4079C133.184 15.3538 131.516 14.3749 131.516 12.7937C131.516 11.4384 132.805 10.5349 134.7 10.5349C136.367 10.5349 138.035 11.2125 139.551 12.6431L139.855 12.9443V9.02895L139.779 8.95366C138.263 7.97482 136.595 7.44775 134.927 7.44775C130.909 7.44775 128.332 9.70661 128.332 13.1702C128.332 16.3326 131.061 17.9138 133.487 19.4197C135.534 20.6244 137.505 21.7539 137.505 23.7115C137.505 24.6904 136.595 26.121 134.245 26.121C132.198 26.121 130.303 25.0668 128.787 23.1845L128.408 22.7327V27.1751L128.484 27.2504C130.303 28.6057 132.198 29.2081 134.548 29.2081C138.111 29.2081 140.688 26.7233 140.688 23.4103C140.688 19.495 137.732 17.8385 135.155 16.4079ZM153.121 7.59834H150.771L141.522 28.8316H145.009C145.009 28.8316 147.587 22.9586 147.663 22.7327H156.38C156.456 22.9586 159.185 28.8316 159.185 28.8316H162.672L153.121 7.59834ZM149.027 19.7209C149.255 19.2691 151.605 13.5467 151.908 12.869C152.211 13.5467 154.788 19.2691 155.016 19.7209H149.027Z" fill="#858585"/>
<path d="M175.105 28.756L176.317 28.9066C176.317 28.9066 194.587 28.8313 196.179 28.756C189.432 23.8618 179.804 16.8594 179.122 16.5582C178.213 16.1064 177.227 15.9558 176.242 15.9558C172.679 15.9558 169.874 18.7417 169.874 22.3559C169.798 26.0454 172.451 28.2289 175.105 28.756Z" fill="#858585"/>
<path d="M187.916 5.18867C185.035 3.08041 181.093 3.75806 178.971 6.61928C178.061 7.8993 177.682 9.17932 177.682 10.384C177.682 12.1158 178.44 13.697 179.501 14.9018L180.411 15.73C180.411 15.73 195.269 26.3466 196.558 27.2502C193.98 19.3442 190.342 8.04989 189.962 7.44753C189.432 6.46869 188.75 5.71574 187.916 5.18867Z" fill="#858585"/>
<path d="M196.178 0.369771C192.995 1.34861 191.63 4.05924 191.63 6.54398C191.63 6.76987 191.63 7.07105 191.706 7.29694L191.933 8.42636C191.933 8.42636 197.543 25.669 197.998 27.1749C200.727 19.2689 204.441 8.04989 204.593 7.37223C204.593 7.07105 204.669 6.76987 204.669 6.54398C204.669 5.86633 204.593 5.11337 204.366 4.43571C203.228 1.04743 199.666 -0.684362 196.178 0.369771Z" fill="#858585"/>
<path d="M219.83 15.9558C218.845 15.9558 217.859 16.1817 216.874 16.6335C216.267 16.9346 206.64 23.8618 199.893 28.756C201.485 28.756 219.754 28.9066 219.754 28.9066L220.967 28.756C223.62 28.2289 226.274 26.0454 226.274 22.3559C226.198 18.7417 223.393 15.9558 219.83 15.9558Z" fill="#858585"/>
<path d="M218.314 10.3841C218.314 9.10406 217.935 7.82404 217.025 6.61931C214.903 3.6828 210.961 3.08044 208.08 5.1887C207.322 5.79107 206.64 6.54402 206.033 7.44756C205.654 8.12522 201.409 21.3019 199.514 27.2502C202.698 24.9914 215.661 15.73 215.661 15.73L216.57 14.9018C217.632 13.6971 218.314 12.1159 218.314 10.3841Z" fill="#858585"/>
</g>
<defs>
<clipPath id="clip0_341_2615">
<rect width="226.064" height="60.8883" fill="white"/>
</clipPath>
</defs>
</svg>
