<svg width="214" height="52" viewBox="0 0 214 52" fill="none" xmlns="http://www.w3.org/2000/svg">
<g clip-path="url(#clip0_341_2585)">
<path d="M49.0715 0.294434H5.47852L14.6601 9.44336H40.1215V40.3498H14.6601L5.47852 49.4988H49.0715V0.294434Z" fill="#858585"/>
<path d="M33.7165 15.7473H15.8164V33.5839H33.7165V15.7473Z" fill="#858585"/>
<path d="M9.56732 15.2865L0 5.75317V44.809L9.56732 35.2757V15.2865Z" fill="#858585"/>
<path d="M79.7708 39.3364C80.2038 39.8583 82.5854 42.6037 85.0551 45.4454L89.5373 50.6151H90.0022H90.4674V42.5314V34.4478H89.3448H88.2223V40.1714V45.895L86.2256 43.5669C85.1271 42.2906 82.89 39.7138 81.2543 37.8433L78.2794 34.4478H77.4295H76.5796V42.3708V50.294H77.7583H78.937L78.961 44.3457L78.985 38.3972L79.7708 39.3364Z" fill="#858585"/>
<path d="M96.9942 49.6201C97.6999 50.0375 98.6861 50.3746 99.584 50.503V50.5112C100.995 50.7038 102.743 50.4469 103.754 49.901C104.443 49.5238 105.285 48.6166 105.638 47.8621C105.903 47.3001 105.927 47.1396 105.927 45.9114C105.927 44.6431 105.911 44.5388 105.614 43.9286C105.245 43.1659 104.355 42.2508 103.505 41.7532C103.176 41.5524 102.358 41.1671 101.685 40.8862C100.194 40.2601 99.5439 39.8266 99.1911 39.2246C98.5577 38.1409 99.1191 36.8002 100.386 36.3588C101.372 36.0135 103.217 36.3347 104.155 37.017L104.588 37.33L104.692 36.9286C104.748 36.7039 104.852 36.3106 104.916 36.0457C104.98 35.7808 105.061 35.4837 105.085 35.3873C105.197 34.9941 103.409 34.2716 102.038 34.1591C99.8166 33.9746 97.9404 34.8898 97.0423 36.5996C96.7617 37.1294 96.7377 37.2658 96.7377 38.3495C96.7377 39.4332 96.7617 39.5776 97.0502 40.1717C97.6596 41.416 98.7982 42.2749 100.963 43.1177C102.07 43.5514 102.96 44.1212 103.281 44.5949C103.866 45.4778 103.802 46.7784 103.136 47.5168C102.639 48.0627 102.022 48.3437 101.124 48.424C99.8408 48.5364 98.2291 48.0627 96.9782 47.2037C96.5291 46.8988 96.5051 46.8907 96.2243 47.0592C96.064 47.1556 95.9358 47.26 95.9358 47.2921C95.9358 47.3242 96.0479 47.7817 96.1842 48.3115L96.4249 49.2748L96.9942 49.6201Z" fill="#858585"/>
<path d="M112.398 47.4609C113.199 49.0985 114.859 50.2143 116.928 50.5033L116.944 50.4953C117.754 50.6077 119.093 50.5355 119.991 50.3267C121.506 49.9735 123.038 48.8336 123.671 47.5814C124.321 46.305 124.313 46.345 124.361 40.1399L124.401 34.4404H123.222H122.044L122.012 40.1399V40.1433C121.988 45.8313 121.987 45.8395 121.739 46.3772C121.218 47.5171 120.24 48.1754 118.828 48.352C116.583 48.633 114.867 47.7499 114.338 46.0321C114.129 45.3738 114.122 45.0286 114.122 39.891V34.4404H112.943H111.764V39.875C111.764 45.8474 111.796 46.2327 112.398 47.4609Z" fill="#858585"/>
<path d="M168.679 39.6659C169.264 40.3564 171.645 43.1017 173.963 45.7669L178.181 50.5993H178.646H179.111V42.5156V34.4321H177.988H176.865V40.1637V45.8953L175.558 44.3701C174.901 43.5939 172.946 41.3475 171.069 39.1914L170.587 38.6384L166.922 34.4401H166.065H165.207V42.3632V50.2862H166.385H167.564L167.588 44.346L167.612 38.4057L168.679 39.6659Z" fill="#858585"/>
<path d="M185.925 46.3286C187.224 48.6083 189.503 50.1336 192.171 50.5028L192.188 50.5109C193.655 50.7195 196.038 50.4387 197.127 49.9409C197.687 49.685 197.689 49.676 197.871 48.9544L197.873 48.9456C197.969 48.5442 198.074 48.1348 198.106 48.0384C198.138 47.9341 198.049 47.7976 197.881 47.6852C197.616 47.5166 197.585 47.5166 197.031 47.7815C196.261 48.1427 195.324 48.3515 194.089 48.4317C191.042 48.6244 188.54 47.067 187.593 44.3859C187.218 43.3263 187.192 41.6244 187.537 40.5007C187.938 39.2003 188.86 37.988 190.023 37.2415C191.86 36.0614 194.649 35.9571 196.75 36.9927C197.191 37.2094 197.601 37.3941 197.656 37.3941C197.744 37.4021 198.13 35.901 198.138 35.4916C198.145 35.3471 197.922 35.1945 197.367 34.9377C196.141 34.3757 195.123 34.183 193.382 34.1912C192.083 34.1991 191.764 34.2393 190.945 34.4881C188.532 35.2267 186.776 36.6635 185.709 38.7909C184.611 40.9662 184.708 44.1933 185.925 46.3286Z" fill="#858585"/>
<path d="M67.4866 34.4404V42.3635V50.2865H68.6653H69.844V42.3635V34.4404H68.6653H67.4866Z" fill="#858585"/>
<path d="M203.583 34.4404V42.3635L203.598 50.3026H208.353H213.109V49.2832V48.2636H209.525H205.939V45.7993V43.3347H208.507H211.072V42.3153V41.2959H208.507H205.939V38.8877V36.4794H209.092H212.243V35.4599V34.4404H207.913H203.583Z" fill="#858585"/>
<path fill-rule="evenodd" clip-rule="evenodd" d="M130.776 42.3635V34.4404H133.526C135.483 34.4404 136.437 34.4806 136.814 34.5849C138.161 34.9462 139.235 35.8211 139.797 37.0093C140.101 37.6595 140.125 37.7879 140.125 38.8795C140.125 39.9473 140.101 40.1159 139.821 40.7179C139.492 41.4322 138.586 42.3955 137.936 42.7247C137.736 42.829 137.551 42.9253 137.535 42.9415C137.519 42.9576 138.674 44.555 140.109 46.4897C141.545 48.4242 142.747 50.0698 142.795 50.142C142.86 50.2465 142.571 50.2786 141.505 50.2706L140.133 50.2625L137.624 46.7946L135.114 43.3268H134.071H133.029V46.8026V50.2786H131.907H130.784V42.3555L130.776 42.3635ZM137.688 39.8269C137.495 40.2763 136.926 40.8061 136.389 41.039V41.031C136.076 41.1673 135.563 41.2316 134.488 41.2637L133.021 41.3118V38.8795V36.4472L134.488 36.4954C136.124 36.5517 136.557 36.6721 137.175 37.2581C137.648 37.7076 137.832 38.1652 137.832 38.8877C137.832 39.2167 137.768 39.6342 137.688 39.8269Z" fill="#858585"/>
<path fill-rule="evenodd" clip-rule="evenodd" d="M146.002 50.0935C146.034 49.9892 147.494 46.3689 149.25 42.042L152.441 34.1751L152.97 34.1431L153.5 34.1108L156.707 42.05C158.471 46.4169 159.93 50.0534 159.946 50.1337C159.97 50.2461 159.722 50.2782 158.808 50.2782H157.637L157.316 49.4996C157.14 49.074 156.747 48.1108 156.442 47.3562L155.881 45.9915L152.93 46.0236L149.979 46.0558L149.13 48.1669L148.28 50.2782H147.117C146.059 50.2782 145.962 50.262 146.019 50.0935H146.002ZM154.332 42.1184C154.615 42.8535 154.834 43.4257 154.887 43.5672L155.031 43.9686H152.954C151.816 43.9686 150.878 43.9366 150.878 43.8964C150.878 43.8562 151.343 42.636 151.912 41.1751L152.946 38.526L153.844 40.8459C154.014 41.2894 154.182 41.7269 154.332 42.1184Z" fill="#858585"/>
<path d="M167.212 7.90807C167.957 8.8002 171.583 12.992 175.268 17.2204L181.971 24.9441H182.753H183.534V12.6376V0.331085H181.74H179.945L179.908 8.99572L179.871 17.6604L178.651 16.2061C177.98 15.3995 174.622 11.5255 171.18 7.57809L164.93 0.404418L163.648 0.35553L162.366 0.306641V12.3687V24.4308H164.075H165.784L165.821 15.3628L165.857 6.2949L167.212 7.90807Z" fill="#858585"/>
<path d="M96.1057 0.318604V12.3807L96.1301 24.4671H103.369H110.608V22.9152V21.3631H105.151H99.6946V17.6113V13.8594H103.601H107.507V12.3074V10.7553H103.601H99.6946V7.08901V3.42274H104.492H109.289V1.87067V0.318604H102.698H96.1057Z" fill="#858585"/>
<path d="M118.567 0.318604V12.3807V24.4427H120.361H122.156V19.1511V13.8594H126.306H130.457V12.3074V10.7553H126.306H122.156V7.089V3.42274H127.039H131.922V1.87067V0.318604H125.244H118.567Z" fill="#858585"/>
<path d="M139.893 0.318604V12.3807V24.4427H147.058H154.224V22.903V21.3631L148.816 21.3142L143.408 21.2654L143.36 17.5623L143.311 13.8594H147.303H151.294V12.3074V10.7553H147.303H143.311V7.089V3.42274H148.108H152.906V1.87067V0.318604H146.399H139.893Z" fill="#858585"/>
<path fill-rule="evenodd" clip-rule="evenodd" d="M193.274 12.3809V0.294434L198.036 0.355539C202.675 0.416644 202.832 0.428851 204.25 0.868805C209.011 2.32309 212.013 5.42722 212.892 9.76567C213.258 11.5866 213.148 14.4218 212.647 16.0472C211.708 19.0536 209.657 21.4244 206.702 22.8788C204.065 24.1864 203.309 24.3087 197.949 24.3941L193.274 24.4674V12.3809ZM208.655 16.4261C207.619 18.6137 205.604 20.129 202.785 20.85C201.454 21.18 197.034 21.4734 196.814 21.2412C196.753 21.1678 196.693 17.1104 196.693 12.2343V3.3619L199.17 3.45965C201.99 3.56965 203.26 3.82628 204.907 4.63286C207.778 6.03828 209.303 8.39692 209.498 11.721C209.608 13.6519 209.388 14.874 208.655 16.4261Z" fill="#858585"/>
<path fill-rule="evenodd" clip-rule="evenodd" d="M67.2969 12.3809V0.294434L72.1431 0.355539C76.8673 0.416644 77.0138 0.428851 78.442 0.868805C82.8609 2.22534 85.8517 5.1217 86.9259 9.04463C87.3288 10.5356 87.4142 13.1753 87.1091 14.8129C86.4376 18.4058 83.9107 21.5467 80.4195 23.1354C78.1245 24.1742 77.27 24.3087 72.0698 24.3819L67.309 24.4552L67.2969 12.3809ZM83.7277 12.3809C83.7277 16.6216 81.2131 19.7746 76.9527 20.8624V20.85C76.1348 21.0579 74.8286 21.2044 73.2783 21.2779L70.8736 21.3878V12.3809V3.37411L73.3515 3.47188C74.731 3.52076 76.3058 3.67963 76.8917 3.8263C81.152 4.8773 83.7277 8.09139 83.7277 12.3809Z" fill="#858585"/>
</g>
<defs>
<clipPath id="clip0_341_2585">
<rect width="213.109" height="51.172" fill="white"/>
</clipPath>
</defs>
</svg>
