<svg width="65" height="54" viewBox="0 0 65 54" fill="none" xmlns="http://www.w3.org/2000/svg">
<g clip-path="url(#clip0_341_2541)">
<path d="M12.2385 46.8579V42.4195C14.9903 42.4195 16.0041 42.274 16.511 45.6937H16.8007V41.9102H9.19696V42.4195H10.5005V52.2422H9.05212V52.7515H16.8731V48.7497H16.511C16.149 51.8056 15.3524 52.2422 13.1799 52.2422H12.166V47.5127H12.7454C13.6868 47.5127 14.2661 48.0948 14.4834 49.7683H14.8455V44.8206H14.4834C14.4834 44.8206 14.411 46.9306 12.7454 46.9306H12.2385V46.8579Z" fill="#858585"/>
<path d="M9.12444 47.0039H4.85185V47.5132H6.30019V51.0058C6.08294 51.8789 4.70702 52.2427 4.34494 52.2427C1.5931 52.2427 1.81035 48.2409 1.81035 47.1494C1.81035 46.2036 1.73794 42.0562 4.34494 42.0562C6.22777 42.0562 7.16919 43.8752 7.53127 45.5487H7.82094C7.82094 44.8939 7.82094 41.6196 7.82094 41.6196C7.82094 41.6196 6.51744 42.5655 6.51744 42.4928C6.51744 42.4928 5.93811 41.6196 4.27252 41.6196C1.08619 41.6196 -0.144897 44.8211 -0.144897 47.0767C-0.144897 49.114 0.79652 52.6793 4.27252 52.6793C5.35877 52.6793 6.08294 52.0972 6.51744 51.5151L7.89336 52.6065V47.4405H9.05202V47.0039H9.12444Z" fill="#858585"/>
<path d="M59.0196 48.6774C58.6575 51.7334 57.861 52.1699 55.6885 52.1699H55.5436V42.42H56.9195V41.9107H52.4297V42.42H53.8056V52.2427H52.7194L48.7365 41.6196H48.1571C48.1571 41.6196 44.8259 51.224 44.8259 51.2968C44.8259 51.2968 44.6087 52.0972 44.0294 52.2427C43.5224 52.2427 43.5949 52.0244 43.5949 51.8789V49.9871C43.5949 49.4778 43.5224 48.3864 43.0879 47.877C42.5086 47.295 41.5672 47.295 41.5672 47.2222C41.5672 47.2222 44.0294 46.7129 44.0294 44.3845C44.0294 42.711 42.8707 41.9107 40.9879 41.8379H35.629V42.3472H37.0049V52.1699H35.629V52.6793H40.0464V52.1699H38.6705V47.4405H40.4809C43.6673 47.7315 39.9016 52.6793 44.1018 52.6793H46.7088V52.1699C46.5639 52.1699 45.6225 52.1699 45.5501 51.5151C45.4777 51.0058 46.2019 49.2595 46.2019 49.2595H49.8227C49.8227 49.2595 50.909 52.1699 50.9814 52.1699H49.7503V52.6793H59.5265V48.6774H59.0196ZM40.4085 46.9312H38.6705V42.42H40.9154C42.2189 42.6383 42.2914 44.1663 42.2914 44.6028C42.2914 45.767 41.7844 46.9312 40.4085 46.9312ZM46.4915 48.8229L48.0847 44.1663L49.7503 48.8229H46.4915Z" fill="#858585"/>
<path d="M30.2701 42.3472C33.022 42.3472 34.1082 42.2017 34.5427 45.6214H34.8324V41.8379H23.825V42.3472H24.1147C24.4768 42.3472 25.4182 42.3472 25.4906 43.2203V49.4778L20.349 41.8379H17.5248V42.3472H17.9593C18.5386 42.3472 19.2628 42.3472 19.3352 43.2203V51.224C19.3352 52.0244 18.1765 52.3154 17.6696 52.3154V52.6792H21.5077V52.3154C21.0008 52.3154 19.8421 52.0244 19.8421 51.224V44.1662C21.8698 47.0767 25.7079 52.6792 25.7803 52.6792H25.9975V43.2203C26.07 42.42 26.939 42.3472 27.3735 42.3472H28.6045V52.1699H27.1562V52.6792H34.9772V48.6774H34.6151C34.253 51.7333 33.4565 52.1699 31.284 52.1699H30.2701V47.4405H30.8495C31.7909 47.4405 32.3702 48.0225 32.5875 49.696H32.9495V44.7483H32.5875C32.5875 44.7483 32.515 46.8584 30.8495 46.8584H30.3425V42.3472H30.2701Z" fill="#858585"/>
<path d="M64.3784 42.42V41.8379H59.9609V42.42H61.3369V52.1699H59.9609V52.6792H64.3784V52.1699H62.93V42.42H64.3784Z" fill="#858585"/>
<path d="M52.7194 35.1436L54.0953 34.6343C56.0505 33.8339 56.3402 33.3246 56.1954 32.0149V26.7761C57.6437 30.5597 59.092 33.1791 61.9163 33.1791C62.2784 33.1791 62.7129 33.1063 63.1474 33.0336L64.2336 32.8153L63.437 31.9421C62.9301 31.4328 62.7129 30.9963 62.4232 30.4869C62.2784 30.2687 62.2059 30.0504 62.0611 29.8321C61.4094 28.7407 59.8162 28.3769 58.5127 28.959C57.9334 27.7948 57.354 26.2668 56.6299 24.375L56.485 24.0112C56.3402 23.7202 56.2678 23.4291 56.1229 23.1381V23.0653C55.6884 22.0467 55.1815 21.1008 54.6746 20.1549C54.1677 19.2818 53.6608 18.5542 53.0814 17.8993C51.5607 16.1531 49.6054 15.0617 47.2157 14.6251C45.5501 14.3341 44.3914 14.2613 42.8707 14.1885C42.581 14.1885 42.2189 14.1885 41.9293 14.1158C41.2775 14.043 39.9016 13.9703 38.5257 13.8247C37.5843 13.752 36.7153 13.6792 35.9911 13.6065C36.0635 13.3882 36.0635 13.1699 36.0635 12.9516C36.0635 12.6606 36.0635 12.3695 35.9911 12.1512H45.5501C48.0123 12.1512 49.8227 11.0598 50.8365 8.87701C53.2987 8.87701 55.0367 7.71284 56.1229 5.60278H56.485C59.0196 5.60278 60.83 4.43861 61.9163 2.11027L62.2784 1.45543H29.9805C27.8804 1.45543 26.07 2.83788 25.3458 5.0207V5.09346C24.7665 3.56549 23.8251 2.25579 22.5216 1.45543C20.7112 0.364016 18.6835 0.000212967 17.0903 0.509538C16.5834 0.655059 16.0041 0.873341 15.5696 1.16438C15.2075 1.45543 14.6282 1.81923 14.2661 2.32855C13.8316 2.83788 13.4695 3.49272 13.1798 4.07481C12.9626 4.22033 12.8178 4.36585 12.7453 4.51137L12.3833 5.23898V5.31174C11.9488 6.33039 11.3694 7.058 10.9349 7.64008C10.5004 8.14941 10.5004 8.65873 10.5004 8.94977C10.5728 9.31358 10.7177 9.60462 10.9349 9.8229C10.7901 10.0412 10.7177 10.3322 10.7177 10.5505C10.7177 11.4236 11.4418 12.0785 12.3833 12.0785C13.035 12.0785 13.6143 11.7874 14.1937 11.3509C14.4109 11.2054 15.0627 10.7688 15.2799 10.7688C15.5696 10.7688 15.7868 10.9871 15.7868 11.2781C15.7868 12.0057 14.9178 12.3695 14.2661 12.3695L12.9626 12.515C12.0212 12.5878 11.5867 13.0971 11.5867 13.5337C11.5867 13.9703 11.8039 14.2613 11.9488 14.4068L12.0212 14.4796L12.3833 14.7706L10.8625 17.099C9.84867 16.1531 8.69001 15.6438 7.67617 15.571C7.02442 15.571 6.44509 15.7165 6.01059 16.1531C5.86575 16.2986 5.79334 16.3714 5.72092 16.5169C4.63467 16.5169 3.76567 17.099 3.33117 17.7538C2.82425 18.4814 3.0415 19.7184 3.62084 20.6642L0 21.6829V38.5634H64.4509V35.2164H52.7194V35.1436ZM61.0473 30.5597C61.1921 30.778 61.2645 30.9963 61.4094 31.1418C61.5542 31.3601 61.699 31.5783 61.8439 31.8694C60.83 31.7966 60.0334 31.2145 59.3817 30.1959C59.961 29.9048 60.7576 30.1231 61.0473 30.5597ZM47.0709 16.1531C49.1709 16.5169 50.8365 17.4628 52.14 18.918C52.4297 19.209 52.6469 19.5728 52.9366 19.9366C49.4606 19.5001 48.2295 18.9907 46.2743 16.0076C46.5639 16.0076 46.7812 16.0803 47.0709 16.1531ZM45.5501 11.0598H38.9602C39.5395 10.5505 39.974 9.89566 40.3361 9.16806H49.2434C48.5192 10.4777 47.2881 11.0598 45.5501 11.0598ZM50.7641 7.85837H44.1742C44.7535 7.34904 45.2604 6.69419 45.6225 5.89383H54.5298C53.8056 7.20352 52.5745 7.85837 50.7641 7.85837ZM51.271 2.83788H60.1059C59.2369 4.00205 58.0782 4.58414 56.4126 4.58414H49.8227C50.402 4.07481 50.9089 3.49273 51.271 2.83788ZM15.3523 3.12892C15.5696 2.83788 15.9317 2.54684 16.2938 2.25579C16.5834 2.03751 17.0179 1.81923 17.4524 1.74647C18.1042 1.60095 18.8283 1.60095 19.5525 1.74647L17.1628 3.20168C16.8731 3.20168 16.5834 3.12892 16.2938 3.12892C15.8593 3.12892 15.4972 3.12892 15.2075 3.20168C15.2799 3.20168 15.2799 3.20168 15.3523 3.12892ZM12.6005 13.6065C12.6005 13.5337 12.6729 13.4609 12.7453 13.4609L13.904 13.5337C15.2799 13.4609 16.7283 12.8789 16.8731 11.4236C16.8731 10.405 16.1489 9.4591 15.2075 9.4591C14.7006 9.4591 14.0488 9.8229 13.3971 10.2595C12.9626 10.5505 12.6005 10.7688 12.3833 10.7688C12.2384 10.7688 12.0936 10.6233 12.0936 10.5505C12.0936 10.5505 12.0936 10.5505 12.0936 10.4777L12.8178 9.4591L12.166 9.02254C12.0212 8.94977 11.8039 8.73149 11.8039 8.65873C11.8039 8.58597 11.8763 8.51321 11.8763 8.44045C12.166 8.14941 12.4557 7.7856 12.7453 7.27628C12.9626 6.98524 13.035 6.83972 13.3247 6.83972C13.6143 6.83972 13.904 7.058 13.904 7.4218C13.904 7.64008 14.1213 7.7856 14.4109 7.7856C14.7006 7.7856 14.8454 7.56732 14.9903 7.4218C14.9903 7.4218 15.642 6.83972 15.2799 6.54867C14.9178 6.25763 13.3247 6.91248 13.7592 5.45726L13.904 5.23898C14.0488 5.0207 14.8454 4.43861 16.3662 4.43861C16.6558 4.43861 16.9455 4.43861 17.3076 4.51137H17.5248L20.856 2.47408C20.856 2.54684 20.9284 2.6196 20.9284 2.6196C21.0733 3.63825 20.4939 4.80242 19.4801 5.3845L19.0456 5.60278L19.3353 7.13076C18.4663 7.4218 17.8869 8.07665 17.8869 8.87701C17.8869 9.16806 17.9593 9.53186 18.0318 9.89566C18.1042 10.405 18.249 10.9143 18.249 11.4236C18.249 13.0244 16.0765 14.043 14.2661 13.9703H14.1937C14.1213 13.9703 12.9626 13.8975 12.6729 13.6792C12.6005 13.752 12.6005 13.6792 12.6005 13.6065ZM4.345 18.5542C4.63467 18.1176 5.214 17.8266 5.93817 17.8993L6.5175 17.9721L6.73475 17.4628C6.80717 17.3173 6.87959 17.1717 6.952 17.099C7.09684 16.9534 7.3865 16.8807 7.67617 16.8807C8.47275 16.8807 9.48659 17.4628 10.2832 18.3359C10.5728 18.6269 10.8625 19.0635 11.0798 19.4273C11.1522 19.5001 11.1522 19.5728 11.2246 19.6456C11.297 19.7184 11.3694 19.8639 11.3694 19.8639C11.3694 19.9366 11.8039 20.5187 11.8039 20.5915C12.0936 20.2277 12.3833 19.7911 12.6005 19.4273V19.3545C12.5281 19.209 12.3833 18.9907 12.3108 18.8452L12.2384 18.7725C12.2384 18.7725 12.166 18.6997 12.166 18.6269C12.0936 18.4814 11.9488 18.2631 11.8763 18.1904L13.6143 15.4255C14.0488 15.4982 14.4109 15.4982 14.6282 15.4982H14.7006C17.1628 15.4982 19.6973 14.043 19.6973 11.7147V11.6419C19.6973 10.9871 19.5525 10.405 19.4801 9.89566C19.4077 9.53186 19.3353 9.24082 19.3353 9.0953C19.3353 8.80425 19.6973 8.51321 20.2043 8.51321H21.0008L20.6388 6.47591C21.725 5.67554 22.4492 4.29309 22.3768 3.05616C23.6078 4.00205 24.4044 5.60278 24.5493 7.27628C24.6217 7.7856 24.4768 8.44045 24.332 9.16806L24.2596 9.4591C23.9699 10.6233 23.5354 11.8602 23.3182 12.4423L23.1009 12.9516L23.6078 13.2427C24.4768 13.752 25.0562 14.1158 25.0562 15.28C25.0562 16.6624 23.8251 17.6811 22.6664 17.8993L21.0008 18.1904L22.3768 19.1363C22.8113 19.4273 23.1009 19.9366 23.1009 20.446C23.1009 21.3191 22.3768 21.9739 21.5078 21.9739H21.0008L20.856 22.4105C20.3491 24.0112 19.8422 24.8116 18.1042 25.0299C18.1042 24.5206 18.1042 24.0112 18.1042 23.3564C18.1042 23.2109 18.1042 22.7743 18.1042 22.6288L18.0318 21.1008L16.9455 22.1922C16.5834 22.556 15.9317 22.8471 15.2075 22.9926V21.6829L7.60375 19.6456L4.92434 20.3732C4.345 19.7911 4.20017 18.7725 4.345 18.5542ZM2.1725 35.1436L7.67617 33.6884L13.1798 35.1436H2.1725ZM13.904 33.9794L7.60375 32.306L1.3035 33.9794V22.7015L7.60375 21.028L13.904 22.7015V33.9794ZM16.8731 31.7966C16.2938 32.597 16.2213 33.7612 16.6558 35.1436H15.2799V24.375C15.7868 24.3023 16.2938 24.1568 16.8007 23.9385C16.8007 24.375 16.7283 24.8116 16.6558 25.2482C16.6558 25.3937 16.5834 25.4664 16.5834 25.612L16.4386 26.4123H17.2352C18.3938 26.4123 19.2628 26.1941 19.987 25.903V30.4142C19.987 30.5597 19.9146 30.6325 19.7698 30.6325H19.5525C18.3938 30.5597 17.38 30.9963 16.8731 31.7966ZM31.3564 32.0877C30.8495 32.6698 30.415 33.6156 30.7047 35.1436H22.5216C23.3906 35.0709 24.0423 34.8526 24.4768 34.416C24.9838 33.8339 25.0562 33.1063 25.0562 32.5242C25.0562 32.4515 25.1286 32.306 25.5631 32.0877L26.2873 31.7966L25.8528 31.1418C25.1286 30.0504 25.4907 27.722 25.7079 26.4123H25.7803C28.5322 26.4123 30.3426 25.8303 32.2254 25.2482C32.7323 25.1026 33.2393 24.9571 33.7462 24.7388C33.7462 24.7388 34.3255 24.5933 35.0497 24.375L37.7291 28.8134V28.8862C38.0188 29.25 38.0188 29.541 37.5119 30.0504L36.2084 31.5056L34.0359 31.069C33.0944 30.9235 32.0082 31.3601 31.3564 32.0877ZM32.0806 35.1436C31.8633 34.1977 31.9358 33.4701 32.3703 32.9608C32.8048 32.4515 33.3841 32.3787 33.891 32.3787L36.4256 32.8153H36.498H36.8601L38.6705 30.8507C38.9602 30.4869 39.9016 29.3955 38.9602 28.0131L36.5704 24.084C36.9325 24.0112 37.367 24.0112 37.7291 24.0112C37.7291 24.0112 38.9602 24.0112 40.2637 24.7388C40.4085 25.1026 40.6982 25.612 40.9154 26.1941C41.4224 27.2127 42.0741 28.5224 42.2189 29.0317C42.2914 29.1772 42.4362 29.6866 41.8569 30.3414L37.2946 35.2164H32.0806V35.1436ZM47.7226 35.1436H39.0326L42.7259 31.2145C43.45 30.4142 43.7397 29.4683 43.3776 28.5952C43.2328 28.0858 42.7259 27.0672 42.2189 25.9758C43.6673 26.6306 45.9122 27.2855 50.4744 27.6493C51.0538 27.722 51.1986 27.8675 51.271 28.3769L51.4883 30.3414L49.0985 30.8507C48.3019 30.9963 47.6502 31.5056 47.3605 32.306C47.0709 33.1791 47.2157 34.1977 47.7226 35.1436ZM48.664 32.8153C48.8089 32.4515 49.0261 32.2332 49.3882 32.1604L52.9366 31.3601L52.6469 28.1586V28.0858C52.5745 27.6493 52.2849 26.4123 50.6193 26.2668C44.2466 25.7575 42.7983 24.8116 41.2051 23.793L41.1327 23.7202C39.4671 22.6288 37.8015 22.6288 37.6567 22.6288C35.8463 22.6288 33.6013 23.3564 33.3841 23.4291C32.8048 23.5747 32.2979 23.793 31.7909 23.9385C29.7633 24.5933 28.0977 25.1754 25.201 25.0299H24.6941L24.5493 25.5392C24.4768 25.903 23.6078 29.1772 24.4044 31.2145C23.6803 31.7966 23.6803 32.3787 23.6803 32.5242C23.6803 33.2518 23.5354 33.3974 23.463 33.4701C23.1009 33.8339 22.0147 33.8339 21.0733 33.8339H20.7112L20.4939 34.125C19.9146 34.9253 18.6835 35.1436 17.8869 34.9253C17.5248 33.8339 17.5248 33.0336 17.8869 32.5242C18.3214 31.9421 19.118 31.8694 19.4801 31.8694H19.6973C20.5663 31.8694 21.2181 31.1418 21.2181 30.3414V24.5933C21.5078 24.2295 21.6526 23.7202 21.8698 23.2109C23.2458 22.9926 24.332 21.8284 24.332 20.3732C24.332 19.7911 24.1872 19.2818 23.8975 18.8452C25.201 18.1904 26.2873 16.9534 26.2873 15.28C26.2873 13.6065 25.4183 12.8061 24.6217 12.3695C24.8389 11.7147 25.201 10.6233 25.4907 9.4591L26.5769 5.45726C27.0838 3.85653 28.3873 2.83788 29.9081 2.83788H49.6054C48.7364 4.00205 47.5778 4.58414 45.9122 4.58414H34.1083L33.4565 5.89383H44.1742C43.3052 7.20352 42.0741 7.85837 40.3361 7.85837H32.5875L31.9358 9.16806H38.8154C37.9464 10.4777 36.7877 11.0598 35.0497 11.0598H30.8495L30.1978 12.3695H34.6152C34.6876 12.4423 34.76 12.6606 34.76 13.1699C34.76 14.043 34.0359 14.6979 33.1669 14.6979C32.8772 14.6979 32.5875 14.6251 32.153 14.4068C31.9358 14.3341 31.7909 14.2613 31.5737 14.1885L30.5599 15.1344C30.7771 15.2072 30.9219 15.28 31.1392 15.3527C32.0082 15.7165 32.5151 15.9348 33.1669 15.9348C33.9634 15.9348 34.6876 15.571 35.2669 15.0617C35.9911 15.1344 37.2222 15.2072 38.4533 15.28C39.9016 15.4255 41.2051 15.4982 41.9293 15.571C42.2914 15.571 42.581 15.571 42.9431 15.6438C43.5224 15.6438 44.1018 15.7165 44.6087 15.7165C47.2881 20.0822 48.664 20.6642 53.878 21.3191C54.2401 21.9739 54.6022 22.7015 54.8919 23.4291V31.9421V32.0149C54.8919 32.3787 54.8919 32.5242 54.8919 32.597C54.6746 32.8153 53.878 33.1791 53.6608 33.2518L49.2434 35.0709C48.664 34.2705 48.4468 33.4701 48.664 32.8153Z" fill="#858585"/>
<path d="M12.528 24.4479L8.32788 23.3564V24.7389L12.528 25.8303V24.4479Z" fill="#858585"/>
<path d="M2.75171 25.8303L6.95188 24.7389V23.3564L2.75171 24.4479V25.8303Z" fill="#858585"/>
<path d="M2.75171 28.595L6.95188 27.5035V26.1211L2.75171 27.2125V28.595Z" fill="#858585"/>
<path d="M12.528 27.2125L8.32788 26.1211V27.5035L12.528 28.595V27.2125Z" fill="#858585"/>
<path d="M12.528 29.9776L8.32788 28.8862V30.2687L12.528 31.3601V29.9776Z" fill="#858585"/>
<path d="M2.75171 31.3601L6.95188 30.2687V28.8862L2.75171 29.9776V31.3601Z" fill="#858585"/>
</g>
<defs>
<clipPath id="clip0_341_2541">
<rect width="64.4509" height="53.1153" fill="white"/>
</clipPath>
</defs>
</svg>
