<svg width="109" height="44" viewBox="0 0 109 44" fill="none" xmlns="http://www.w3.org/2000/svg">
<g clip-path="url(#clip0_341_2888)">
<path d="M62.8469 31.5367V11.8624H65.2819C71.8912 11.8624 76.1814 14.8136 76.1814 21.6417V21.7574C76.1814 28.5277 71.8912 31.5367 65.2819 31.5367H62.8469ZM48.3528 43.3991H64.4122C81.9211 43.3991 90.6755 34.3142 90.6755 21.4681V21.3523C90.7335 8.50622 82.095 0 64.934 0H48.3528V43.3991Z" fill="#858585"/>
<path d="M9.04492 29.9166H31.7716V14.9873H9.04492V29.9166Z" fill="#858585"/>
<path d="M95.2554 43.3991H108.822V0H95.2554V43.3991Z" fill="#858585"/>
<path d="M0.000244141 43.3991H13.6247V0H0.000244141V43.3991Z" fill="#858585"/>
<path d="M28.6987 43.3991H42.3232V0H28.6987V43.3991Z" fill="#858585"/>
</g>
<defs>
<clipPath id="clip0_341_2888">
<rect width="108.822" height="43.3991" fill="white"/>
</clipPath>
</defs>
</svg>
