<svg width="94" height="52" viewBox="0 0 94 52" fill="none" xmlns="http://www.w3.org/2000/svg">
<g clip-path="url(#clip0_341_2651)">
<mask id="mask0_341_2651" style="mask-type:luminance" maskUnits="userSpaceOnUse" x="-24" y="-73" width="143" height="202">
<path d="M-23.678 -72.0325H118.627V128.139H-23.678V-72.0325Z" fill="white"/>
</mask>
<g mask="url(#mask0_341_2651)">
<path fill-rule="evenodd" clip-rule="evenodd" d="M86.0853 13.4006C86.0853 9.70786 84.288 5.42296 79.6192 5.42296C75.3837 5.42296 73.1547 9.04197 73.1547 13.4006C73.1547 18.2991 75.9035 21.3798 79.6192 21.3798C84.288 21.3798 86.0848 17.1401 86.0853 13.4006ZM92.3238 13.4006C92.3238 21.1345 87.1403 26.6865 79.5159 26.6865C72.3078 26.6865 66.95 21.5912 66.95 13.4006C66.95 4.60445 73.3116 0.0796738 79.7567 0.0796738C85.9366 0.0796738 92.3238 4.36957 92.3238 13.4006Z" fill="#858585"/>
</g>
<mask id="mask1_341_2651" style="mask-type:luminance" maskUnits="userSpaceOnUse" x="-24" y="-73" width="143" height="202">
<path d="M-23.678 -72.0325H118.627V128.139H-23.678V-72.0325Z" fill="white"/>
</mask>
<g mask="url(#mask1_341_2651)">
<path fill-rule="evenodd" clip-rule="evenodd" d="M64.6651 24.2684C63.1387 25.284 59.9288 26.6631 55.5501 26.6631C46.946 26.6631 42.6948 20.7618 42.6948 13.5533C42.6948 5.43756 48.4715 0.0797749 56.0218 0.0797749C59.7609 0.0797749 62.1607 0.70002 64.2888 1.7344L62.1081 6.73511C60.4854 6.06043 58.6158 5.66246 56.3973 5.66246C50.9411 5.66246 49.089 8.90823 49.089 13.3881C49.089 18.2248 51.5742 21.3604 55.9048 21.3604C57.4723 21.3604 58.6495 21.0274 59.0123 20.793V16.2953H54.6164L54.6231 11.2038H64.6624L64.6651 24.2684Z" fill="#858585"/>
</g>
<mask id="mask2_341_2651" style="mask-type:luminance" maskUnits="userSpaceOnUse" x="-24" y="-73" width="143" height="202">
<path d="M-23.678 -72.0325H118.627V128.139H-23.678V-72.0325Z" fill="white"/>
</mask>
<g mask="url(#mask2_341_2651)">
<path fill-rule="evenodd" clip-rule="evenodd" d="M34.7846 8.86533C34.7846 7.7884 34.3952 6.92566 33.6182 6.34036C32.8416 5.73105 31.7725 5.43365 30.4767 5.41297C30.3334 5.41154 29.7747 5.4163 29.4394 5.42771C29.1091 5.43769 28.2278 5.5171 27.9511 5.56678V12.907C28.3519 12.9546 29.1823 12.9917 29.8589 12.9917C31.2956 12.9917 32.6316 12.5984 33.4804 11.9447C34.329 11.2652 34.7846 10.1774 34.7846 8.86533ZM35.2792 26.2422C34.4241 23.1445 32.9942 20.7884 31.8141 19.2816C30.8196 18.0102 30.0452 17.7378 30.0452 17.7378C29.2416 17.7599 28.6887 17.7563 27.9511 17.7233V26.2415H21.9451V0.762197C23.2098 0.55941 24.1165 0.449339 25.4424 0.32667C26.6655 0.213509 28.0458 0.139812 29.5767 0.139812C31.602 0.139812 33.3225 0.363041 34.7346 0.807127C36.1474 1.25121 37.3011 1.86005 38.197 2.63244C39.1154 3.40579 39.7741 4.36599 40.1749 5.41939C40.5985 6.44877 40.8109 7.54947 40.8109 8.71984C40.8109 10.2649 40.4311 11.7616 39.6045 13.0425C38.8696 14.1789 37.6362 15.3436 36.3595 16.1442V16.2567C39.2135 17.5542 40.8291 21.7329 42.3963 26.2422H35.2792Z" fill="#858585"/>
</g>
<mask id="mask3_341_2651" style="mask-type:luminance" maskUnits="userSpaceOnUse" x="-24" y="-73" width="143" height="202">
<path d="M-23.678 -72.0325H118.627V128.139H-23.678V-72.0325Z" fill="white"/>
</mask>
<g mask="url(#mask3_341_2651)">
<path fill-rule="evenodd" clip-rule="evenodd" d="M0.841309 20.1422V0.500914H18.4804L18.4845 5.97923H6.84826V10.3854H16.696L16.7025 15.5839H6.84826V18.3373C6.84826 20.0675 7.87094 20.7995 9.20383 20.7995C11.9088 20.7995 18.9595 20.7986 18.9595 20.7986L18.9664 26.2417H6.93292C2.42652 26.2417 0.841309 24.1744 0.841309 20.1422Z" fill="#858585"/>
</g>
<mask id="mask4_341_2651" style="mask-type:luminance" maskUnits="userSpaceOnUse" x="-24" y="-73" width="143" height="202">
<path d="M-23.678 -72.0325H118.627V128.139H-23.678V-72.0325Z" fill="white"/>
</mask>
<g mask="url(#mask4_341_2651)">
<path d="M92.3294 33.0841C92.0012 33.44 91.5542 33.6473 91.0477 33.6473H91.018C90.5406 33.6473 90.0934 33.44 89.7363 33.0841C89.3783 32.7584 89.229 32.3141 89.229 31.8105C89.229 31.2768 89.3783 30.8917 89.7363 30.5365C90.0934 30.1809 90.5406 30.033 91.018 30.033H91.0477C91.5542 30.033 92.0012 30.1809 92.3294 30.5365C92.6869 30.8917 92.8359 31.2768 92.8359 31.8105C92.8359 32.3438 92.6869 32.7881 92.3294 33.0841ZM92.5085 30.3882C92.1208 29.9439 91.6138 29.7363 91.0477 29.7363H91.018C90.4514 29.7658 89.9745 29.9439 89.5572 30.3882C89.1398 30.7733 88.9609 31.2473 88.9609 31.8105C88.9609 32.4027 89.1398 32.8768 89.5572 33.2921C89.9745 33.6767 90.4514 33.8843 91.018 33.8843H91.0477C91.6138 33.8843 92.1208 33.6767 92.5085 33.2921C92.955 32.8768 93.1339 32.4027 93.1339 31.8105C93.1339 31.2473 92.955 30.7733 92.5085 30.3882Z" fill="#858585"/>
</g>
<mask id="mask5_341_2651" style="mask-type:luminance" maskUnits="userSpaceOnUse" x="-24" y="-73" width="143" height="202">
<path d="M-23.678 -72.0325H118.627V128.139H-23.678V-72.0325Z" fill="white"/>
</mask>
<g mask="url(#mask5_341_2651)">
<path d="M90.9579 31.6915H90.5406V30.8618H91.1368C91.5245 30.8618 91.7331 31.0099 91.7331 31.247C91.7331 31.4545 91.6434 31.5726 91.4946 31.6323L91.1368 31.6618L90.9579 31.6915ZM92.0311 31.247C92.0311 30.8618 91.7627 30.6248 91.1968 30.6248H91.1368H90.2722V33.0542H90.5406V31.958H91.0773L91.1368 32.0177L91.7627 33.0542H92.1504L91.4049 31.958C91.7926 31.8693 92.0311 31.6323 92.0311 31.247Z" fill="#858585"/>
</g>
<mask id="mask6_341_2651" style="mask-type:luminance" maskUnits="userSpaceOnUse" x="-24" y="-73" width="143" height="202">
<path d="M-23.678 -72.0325H118.627V128.139H-23.678V-72.0325Z" fill="white"/>
</mask>
<g mask="url(#mask6_341_2651)">
<path d="M20.9235 50.4121L19.6813 50.2915C19.1664 50.2012 18.8631 49.7795 18.7423 48.9664C18.6512 48.3046 18.6211 46.5881 18.6211 43.7876L18.6512 34.332C18.7423 33.519 19.015 33.0678 19.5598 32.9473L20.2873 32.8871C20.5899 32.8871 20.7418 32.7965 20.7418 32.6762C20.7418 32.5255 20.5296 32.4354 20.2264 32.4354H13.5921C13.2288 32.4354 13.0771 32.5255 13.0771 32.6762C13.0771 32.7965 13.2288 32.8871 13.471 32.8871L14.4404 32.9473C15.1067 33.1279 15.4401 33.5497 15.5006 34.332L15.5611 39.9934C15.5611 40.1137 15.5006 40.1441 15.41 40.1441H6.04918C5.92792 40.1441 5.86741 40.1137 5.86741 39.9934L5.92792 34.332C5.98843 33.519 6.29098 33.0678 6.83676 32.9473L7.56359 32.8871C7.83672 32.8871 8.01801 32.7965 8.01801 32.6762C8.01801 32.5255 7.80587 32.4354 7.47295 32.4354H0.868556C0.50502 32.4354 0.32373 32.5255 0.32373 32.6762C0.32373 32.7965 0.444509 32.8871 0.747775 32.8871L1.68675 32.9473C2.38345 33.1279 2.68623 33.5497 2.74722 34.332L2.80749 43.7876C2.80749 46.5881 2.77736 48.3345 2.6561 48.9664C2.59559 49.7795 2.35307 50.2012 1.98954 50.2915L1.2627 50.4121C0.868555 50.4121 0.686787 50.5027 0.686787 50.6229C0.686787 50.7737 0.868555 50.8638 1.17158 50.8638H8.13927C8.44206 50.8638 8.59369 50.7737 8.59369 50.6229C8.59369 50.442 8.47219 50.4121 8.19978 50.4121L6.95754 50.2915C6.44285 50.2012 6.10969 49.7795 5.98843 48.9664C5.92792 48.3046 5.86741 46.5881 5.86741 43.7876V41.6193C5.86741 41.5591 5.92792 41.469 6.04918 41.469H15.41C15.5006 41.469 15.5611 41.5591 15.5611 41.6193V43.7876C15.5611 46.5881 15.5006 48.3345 15.4401 48.9664C15.3189 49.7795 15.1067 50.2012 14.7128 50.2915L13.986 50.4121C13.6227 50.4121 13.4407 50.5027 13.4407 50.6229C13.4407 50.7737 13.6227 50.8638 13.9556 50.8638H20.8625C21.1357 50.8638 21.3174 50.7737 21.3174 50.6229C21.3174 50.442 21.1962 50.4121 20.9235 50.4121Z" fill="#858585"/>
</g>
<mask id="mask7_341_2651" style="mask-type:luminance" maskUnits="userSpaceOnUse" x="-24" y="-73" width="143" height="202">
<path d="M-23.678 -72.0325H118.627V128.139H-23.678V-72.0325Z" fill="white"/>
</mask>
<g mask="url(#mask7_341_2651)">
<path d="M34.3999 47.1159C34.2772 47.1159 34.1856 47.177 34.155 47.4204C33.9407 48.3942 33.5731 49.003 33.0215 49.2769L30.6949 49.5809C29.44 49.5809 28.6438 49.4594 28.3071 49.1554C27.9397 48.9728 27.7558 48.3942 27.6946 47.5117V41.7293C27.6946 41.547 27.7558 41.4554 27.8474 41.4554L31.399 41.547C32.1648 41.6078 32.6547 41.9423 32.7774 42.5207L32.869 43.3426C32.869 43.5551 32.9299 43.6469 33.1136 43.6469C33.2366 43.6469 33.2975 43.4641 33.2975 43.16L33.5427 40.2081L33.6348 39.6905C33.6348 39.5688 33.5427 39.5077 33.4198 39.5077L33.0526 39.8427C32.8996 39.9641 32.746 40.0557 32.5018 40.1165L31.8276 40.2081L27.9091 40.2378C27.7864 40.2378 27.6946 40.1776 27.6946 39.9641V33.7558C27.6946 33.5736 27.7864 33.5128 27.9091 33.5128C29.7153 33.5128 30.9092 33.5128 31.399 33.5736C32.3179 33.6949 32.869 33.9997 33.0526 34.4863L33.2366 35.4299C33.2669 35.6124 33.2975 35.6731 33.4198 35.6731C33.5731 35.6731 33.6651 35.6124 33.6651 35.4299L34.0017 32.2345C34.0017 32.1125 33.9407 32.0517 33.879 32.0517L32.4098 32.2345L22.612 32.2041C22.2757 32.2041 22.0918 32.2951 22.0918 32.4475C22.0918 32.569 22.214 32.6605 22.49 32.6605L23.4694 32.7211C24.1431 32.904 24.4794 33.33 24.5411 34.1211L24.5717 43.6771C24.5717 46.5075 24.5411 48.2727 24.449 48.9115C24.3574 49.7331 24.1431 50.1593 23.7143 50.2504L22.9796 50.3723C22.612 50.3723 22.4589 50.4639 22.4589 50.5856C22.4589 50.7377 22.612 50.8288 22.9492 50.8288L32.9299 50.8896L33.9407 50.8288C34.0626 50.7682 34.1856 50.5856 34.2772 50.2504C34.5221 49.3684 34.6142 48.4857 34.6142 47.5117C34.6142 47.2378 34.5525 47.1159 34.3999 47.1159Z" fill="#858585"/>
</g>
<mask id="mask8_341_2651" style="mask-type:luminance" maskUnits="userSpaceOnUse" x="-24" y="-73" width="143" height="202">
<path d="M-23.678 -72.0325H118.627V128.139H-23.678V-72.0325Z" fill="white"/>
</mask>
<g mask="url(#mask8_341_2651)">
<path d="M43.4554 39.468L42.7826 38.9811C41.7123 38.1607 41.0701 37.5526 40.7035 37.0362C40.3361 36.55 40.1527 36.0025 40.1527 35.4253C40.1527 34.6651 40.4282 34.0572 40.9176 33.5708C41.4676 33.1757 42.2014 32.9325 43.0882 32.9325C44.2508 32.9325 45.1676 33.3278 45.7794 34.0878C46.2075 34.6349 46.4215 35.1512 46.4215 35.699C46.4215 36.0025 46.5131 36.1547 46.6966 36.1547C46.88 36.1547 46.9417 35.9117 46.9417 35.4253C46.9417 34.6651 47.0027 33.9357 47.0027 33.3278L47.0637 32.4463C47.0331 32.3552 46.9106 32.2335 46.6966 32.2031C45.6574 31.8993 44.5563 31.7776 43.425 31.7776C41.6817 31.7776 40.3058 32.2031 39.2962 33.0844C38.2264 33.9357 37.7062 35.03 37.7062 36.3979C37.7062 38.3735 38.9298 40.3495 41.3449 42.2338L42.5075 43.1153C44.1281 44.3617 44.9236 45.699 44.9236 47.0669C44.9236 47.7658 44.6782 48.4044 44.1281 48.9816C43.5164 49.5897 42.6601 49.8631 41.5903 49.8631C39.786 49.8631 38.5625 49.0427 38.0736 47.4011C37.9203 46.8843 37.8289 46.4286 37.8289 46.1243C37.8289 45.8204 37.7369 45.699 37.5843 45.699C37.4312 45.699 37.3396 45.9117 37.3087 46.337C37.2171 47.5229 37.1868 48.6171 37.1868 49.5897C37.1868 49.9848 37.3396 50.2582 37.6756 50.4104C38.6541 50.8359 39.847 51.0791 41.2842 51.0791C42.8436 51.0791 44.1588 50.7142 45.1676 50.0454C46.758 49.0427 47.5224 47.6137 47.5224 45.7598C47.5224 44.5745 47.1859 43.5408 46.5746 42.5685C46.0238 41.6256 44.954 40.6229 43.4554 39.468Z" fill="#858585"/>
</g>
<mask id="mask9_341_2651" style="mask-type:luminance" maskUnits="userSpaceOnUse" x="-24" y="-73" width="143" height="202">
<path d="M-23.678 -72.0325H118.627V128.139H-23.678V-72.0325Z" fill="white"/>
</mask>
<g mask="url(#mask9_341_2651)">
<path d="M64.6411 32.1087L62.2545 32.3519L49.9507 32.2307L48.9096 31.9261C48.7876 31.9261 48.6955 32.1087 48.6039 32.3823C48.2363 33.843 48.0837 34.7858 48.0837 35.1814C48.0837 35.4553 48.1753 35.577 48.298 35.577C48.4202 35.577 48.5427 35.4855 48.5733 35.3029C48.6039 35.0293 48.7876 34.7252 49.0323 34.4511C49.3078 33.9946 50.0727 33.7512 51.4194 33.721L55.1229 33.5991V43.73C55.1229 46.4678 55.062 48.2325 55.0002 48.9626C54.8783 49.7839 54.664 50.2099 54.2658 50.301L53.4703 50.4229C53.1639 50.4229 52.9499 50.5145 52.9499 50.636C52.9499 50.7881 53.1333 50.8794 53.4703 50.8794H60.4791C60.7848 50.8794 60.9381 50.7881 60.9381 50.636C60.9381 50.4534 60.7848 50.4229 60.5401 50.4229L59.2857 50.301C58.765 50.2099 58.4285 49.7839 58.3058 48.9626C58.2448 48.2325 58.1833 46.4982 58.1833 43.73V33.5991L61.3057 33.6906C63.1724 33.721 64.1515 34.2077 64.2436 35.0597L64.2742 35.3333C64.3355 35.668 64.3965 35.8197 64.5495 35.8197C64.6722 35.8197 64.7334 35.6985 64.7638 35.4553L64.8554 32.5953C64.8554 32.2611 64.7638 32.1087 64.6411 32.1087Z" fill="#858585"/>
</g>
<mask id="mask10_341_2651" style="mask-type:luminance" maskUnits="userSpaceOnUse" x="-24" y="-73" width="143" height="202">
<path d="M-23.678 -72.0325H118.627V128.139H-23.678V-72.0325Z" fill="white"/>
</mask>
<g mask="url(#mask10_341_2651)">
<path d="M84.5657 43.1845H82.3192H80.0115C79.9206 43.1845 79.8904 43.1238 79.9206 43.0033L82.1975 36.968C82.2278 36.8772 82.2587 36.8168 82.3192 36.7866H82.3496C82.3797 36.7866 82.4402 36.847 82.4706 36.968L84.687 43.0033C84.7178 43.1238 84.687 43.1845 84.5657 43.1845ZM92.8541 50.3364L91.8524 50.2157C91.0931 50.0652 90.3646 49.1898 89.6665 47.5906L83.5638 32.5618C83.351 32.0486 83.1694 31.807 82.9568 31.807C82.7746 31.807 82.562 32.0785 82.3192 32.6821C82.2883 32.7123 82.2883 32.7425 82.2587 32.7732L76.1255 48.1034C75.7913 48.8275 75.5486 49.3108 75.2755 49.5823C74.9715 49.9748 74.5469 50.2157 74.0306 50.3065L71.5107 50.2157C70.9644 50.1253 70.6 49.7328 70.5696 49.0089C70.4782 48.3449 70.4486 46.5341 70.4486 43.6975L70.4782 34.2212C70.5696 33.4063 70.8731 32.9543 71.3894 32.8333L72.1787 32.7732C72.4215 32.7732 72.5123 32.6821 72.5123 32.5312C72.5123 32.4109 72.3609 32.3205 71.9965 32.3205H65.8034C65.4387 32.3205 65.2263 32.4109 65.2263 32.5312C65.2263 32.6821 65.3473 32.7732 65.6513 32.7732L66.5011 32.8935C67.0175 33.0145 67.2906 33.4971 67.321 34.2212L67.3815 43.6975C67.3815 46.5341 67.321 48.2845 67.2604 49.0089C67.1691 49.7328 66.9266 50.1253 66.5621 50.2157L65.8034 50.3364C65.4387 50.3364 65.2868 50.4272 65.2868 50.5478C65.2868 50.6987 65.4387 50.7891 65.7723 50.7891H78.9189C79.2224 50.7891 79.3435 50.6987 79.3435 50.5478C79.3435 50.4272 79.2224 50.3364 78.9797 50.3364H78.6152C77.9776 50.3364 77.6437 50.0951 77.6437 49.5823C77.6437 49.25 77.765 48.7372 78.0077 48.1034L79.3435 44.5726C79.3743 44.4516 79.4652 44.4216 79.5257 44.4216H82.3192H85.0211L85.2942 44.5726L87.2073 49.7328C87.3283 50.0652 87.2678 50.2157 87.0251 50.3364C86.7821 50.3364 86.6603 50.4272 86.6603 50.5478C86.6603 50.6688 86.9038 50.7289 87.4197 50.7289H92.945C93.0968 50.6987 93.1882 50.6079 93.1882 50.5478C93.1882 50.3666 93.0968 50.3364 92.8541 50.3364Z" fill="#858585"/>
</g>
</g>
<defs>
<clipPath id="clip0_341_2651">
<rect width="93.2756" height="51.172" fill="white"/>
</clipPath>
</defs>
</svg>
