<svg width="189" height="69" viewBox="0 0 189 69" fill="none" xmlns="http://www.w3.org/2000/svg">
<g clip-path="url(#clip0_341_2742)">
<mask id="mask0_341_2742" style="mask-type:luminance" maskUnits="userSpaceOnUse" x="-111" y="-256" width="411" height="582">
<path d="M-110.608 -255.234H299.539V325.222H-110.608V-255.234Z" fill="white"/>
</mask>
<g mask="url(#mask0_341_2742)">
<path d="M166.167 14.017C166.167 14.017 175.485 12.9809 182.731 20.2942C182.731 20.2942 190.526 13.4075 186.751 0.304567C186.751 0.304567 172.623 -0.914312 166.167 14.017Z" fill="#858585"/>
</g>
<mask id="mask1_341_2742" style="mask-type:luminance" maskUnits="userSpaceOnUse" x="-111" y="-256" width="411" height="582">
<path d="M-110.608 -255.234H299.539V325.222H-110.608V-255.234Z" fill="white"/>
</mask>
<g mask="url(#mask1_341_2742)">
<path d="M163.854 14.5651C163.854 14.5651 164.95 11.1523 167.081 8.04414C167.081 8.04414 162.27 0.121428 148.934 0.121428C148.934 0.121428 144.671 11.3961 153.197 20.4158C153.197 20.4158 157.703 15.5403 163.854 14.5651Z" fill="#858585"/>
</g>
<mask id="mask2_341_2742" style="mask-type:luminance" maskUnits="userSpaceOnUse" x="-111" y="-256" width="411" height="582">
<path d="M-110.608 -255.234H299.539V325.222H-110.608V-255.234Z" fill="white"/>
</mask>
<g mask="url(#mask2_341_2742)">
<path d="M164.828 16.8206C164.828 16.8206 175.86 14.2711 182.366 23.4634C188.577 32.2394 184.071 41.1981 178.773 41.0153C173.475 40.8325 166.411 37.6634 164.158 25.7793C164.158 25.7793 163.549 21.5132 164.828 16.8206Z" fill="#858585"/>
</g>
<mask id="mask3_341_2742" style="mask-type:luminance" maskUnits="userSpaceOnUse" x="-111" y="-256" width="411" height="582">
<path d="M-110.608 -255.234H299.539V325.222H-110.608V-255.234Z" fill="white"/>
</mask>
<g mask="url(#mask3_341_2742)">
<path d="M162.879 16.9423C162.879 16.9423 160.077 26.7542 166.715 36.1396C166.715 36.1396 158.068 44.6718 152.283 39.1259C146.498 33.58 150.821 19.8066 162.879 16.9423Z" fill="#858585"/>
</g>
<mask id="mask4_341_2742" style="mask-type:luminance" maskUnits="userSpaceOnUse" x="-111" y="-256" width="411" height="582">
<path d="M-110.608 -255.234H299.539V325.222H-110.608V-255.234Z" fill="white"/>
</mask>
<g mask="url(#mask4_341_2742)">
<path d="M0.143066 40.4668H6.23273V16.5768H0.224424L0.143066 40.4668Z" fill="#858585"/>
</g>
<mask id="mask5_341_2742" style="mask-type:luminance" maskUnits="userSpaceOnUse" x="-111" y="-256" width="411" height="582">
<path d="M-110.608 -255.234H299.539V325.222H-110.608V-255.234Z" fill="white"/>
</mask>
<g mask="url(#mask5_341_2742)">
<path d="M10.942 40.3859H15.8137V30.2282C15.8137 30.2282 16.788 27.7905 19.6297 27.5467C22.4719 27.3029 22.0656 30.3096 22.0656 30.3096V40.4668H27.0187L27.1809 29.0908C27.1809 29.0908 27.0187 24.2152 21.822 23.9715C21.822 23.9715 18.899 23.2401 16.0573 26.4092V24.459H10.8606L10.942 40.3859Z" fill="#858585"/>
</g>
<mask id="mask6_341_2742" style="mask-type:luminance" maskUnits="userSpaceOnUse" x="-111" y="-256" width="411" height="582">
<path d="M-110.608 -255.234H299.539V325.222H-110.608V-255.234Z" fill="white"/>
</mask>
<g mask="url(#mask6_341_2742)">
<path d="M31.647 27.8722H29.2925V26.7347L35.9502 19.5838H36.6001L36.7623 24.0532H42.2026V27.7099H36.6001V34.6165C36.6001 34.6165 35.8693 38.1922 42.3648 36.4044L42.2834 39.7358C42.2834 39.7358 41.3904 40.7918 36.4374 40.7109C31.4848 40.63 31.647 35.3478 31.647 35.3478V27.8722Z" fill="#858585"/>
</g>
<mask id="mask7_341_2742" style="mask-type:luminance" maskUnits="userSpaceOnUse" x="-111" y="-256" width="411" height="582">
<path d="M-110.608 -255.234H299.539V325.222H-110.608V-255.234Z" fill="white"/>
</mask>
<g mask="url(#mask7_341_2742)">
<path d="M49.6724 30.635C50.0783 27.7911 52.2705 27.4659 52.2705 27.4659C55.6808 27.2222 55.6808 30.7974 55.6808 30.7974L49.6724 30.635ZM60.9588 33.398C60.9588 33.398 62.1767 26.1656 54.2192 24.0531C54.2192 24.0531 45.1257 22.9156 44.2322 30.9602C43.3392 39.0048 49.5102 41.3612 55.1936 40.7113C55.1936 40.7113 59.2537 40.2237 60.6338 38.5173V35.5106C60.6338 35.5106 56.7365 38.5982 52.1083 37.1356C52.1083 37.1356 49.1853 36.3233 49.7538 33.398H60.9588Z" fill="#858585"/>
</g>
<mask id="mask8_341_2742" style="mask-type:luminance" maskUnits="userSpaceOnUse" x="-111" y="-256" width="411" height="582">
<path d="M-110.608 -255.234H299.539V325.222H-110.608V-255.234Z" fill="white"/>
</mask>
<g mask="url(#mask8_341_2742)">
<path d="M63.9626 40.4668H69.078V33.3973C69.078 33.3973 70.7017 26.4092 76.0606 29.6592L77.5221 25.2713C77.5221 25.2713 72.7318 20.7209 69.078 28.9279V24.3776L63.9626 24.459V40.4668Z" fill="#858585"/>
</g>
<mask id="mask9_341_2742" style="mask-type:luminance" maskUnits="userSpaceOnUse" x="-111" y="-256" width="411" height="582">
<path d="M-110.608 -255.234H299.539V325.222H-110.608V-255.234Z" fill="white"/>
</mask>
<g mask="url(#mask9_341_2742)">
<path d="M89.9451 26.2469H85.8041V20.8024H89.7829C91.9752 20.8024 92.056 23.2401 92.056 23.2401C92.1374 26.4092 89.9451 26.2469 89.9451 26.2469ZM94.2483 29.4974C94.2483 29.4974 99.6886 26.5721 98.3084 22.265C96.9278 17.9585 94.6546 16.4958 88.6458 16.4144C82.6375 16.3335 79.9581 16.4144 79.9581 16.4144L79.8767 40.4673H85.6419V30.8786C85.6419 30.8786 89.133 30.0659 90.5945 32.8288C92.056 35.5918 94.0861 40.3859 94.0861 40.3859H100.663C100.663 40.3859 96.8469 29.6597 94.2483 29.4974Z" fill="#858585"/>
</g>
<mask id="mask10_341_2742" style="mask-type:luminance" maskUnits="userSpaceOnUse" x="-111" y="-256" width="411" height="582">
<path d="M-110.608 -255.234H299.539V325.222H-110.608V-255.234Z" fill="white"/>
</mask>
<g mask="url(#mask10_341_2742)">
<path d="M107.483 40.4668H102.368V24.2962H107.483V40.4668Z" fill="#858585"/>
</g>
<mask id="mask11_341_2742" style="mask-type:luminance" maskUnits="userSpaceOnUse" x="-111" y="-256" width="411" height="582">
<path d="M-110.608 -255.234H299.539V325.222H-110.608V-255.234Z" fill="white"/>
</mask>
<g mask="url(#mask11_341_2742)">
<path d="M107.484 18.7706C107.484 20.2518 106.284 21.4521 104.804 21.4521C103.325 21.4521 102.125 20.2518 102.125 18.7706C102.125 17.2894 103.325 16.0891 104.804 16.0891C106.284 16.0891 107.484 17.2894 107.484 18.7706Z" fill="#858585"/>
</g>
<mask id="mask12_341_2742" style="mask-type:luminance" maskUnits="userSpaceOnUse" x="-111" y="-256" width="411" height="582">
<path d="M-110.608 -255.234H299.539V325.222H-110.608V-255.234Z" fill="white"/>
</mask>
<g mask="url(#mask12_341_2742)">
<path d="M142.642 40.548L136.795 32.0158L142.398 24.5402L136.876 24.4588L130.381 32.0826V16.5765H125.347V40.6294H130.381V32.2806L136.958 40.548H142.642Z" fill="#858585"/>
</g>
<mask id="mask13_341_2742" style="mask-type:luminance" maskUnits="userSpaceOnUse" x="-111" y="-256" width="411" height="582">
<path d="M-110.608 -255.234H299.539V325.222H-110.608V-255.234Z" fill="white"/>
</mask>
<g mask="url(#mask13_341_2742)">
<path d="M122.261 28.6844V25.353C122.261 25.353 116.822 22.4277 112.356 25.1092C112.356 25.1092 107.565 29.0905 112.356 32.6662C112.356 32.6662 115.035 34.2098 117.065 35.0226C117.065 35.0226 120.069 37.0542 116.415 37.6227C116.415 37.6227 114.467 38.1912 110.813 36.2415V39.5729C110.813 39.5729 119.338 43.0667 122.667 37.9479C122.667 37.9479 123.723 34.2098 122.343 33.1538C122.343 33.1538 121.774 32.0973 118.283 30.5532C118.283 30.5532 114.304 29.4157 115.035 28.1154C115.766 26.8156 117.552 27.0589 119.5 27.6279C121.449 28.1969 122.261 28.6844 122.261 28.6844Z" fill="#858585"/>
</g>
<mask id="mask14_341_2742" style="mask-type:luminance" maskUnits="userSpaceOnUse" x="-111" y="-256" width="411" height="582">
<path d="M-110.608 -255.234H299.539V325.222H-110.608V-255.234Z" fill="white"/>
</mask>
<g mask="url(#mask14_341_2742)">
<path d="M188.03 50.2173H0.224365V47.5358H188.03V50.2173Z" fill="#858585"/>
</g>
<mask id="mask15_341_2742" style="mask-type:luminance" maskUnits="userSpaceOnUse" x="-111" y="-256" width="411" height="582">
<path d="M-110.608 -255.234H299.539V325.222H-110.608V-255.234Z" fill="white"/>
</mask>
<g mask="url(#mask15_341_2742)">
<path d="M6.56854 67.0972L0.531982 53.8826H2.2897L6.70203 63.5171L11.0384 53.8826H12.7961L6.874 67.0972H6.56854Z" fill="#858585" stroke="#858585" stroke-width="0.431832"/>
</g>
<mask id="mask16_341_2742" style="mask-type:luminance" maskUnits="userSpaceOnUse" x="-111" y="-256" width="411" height="582">
<path d="M-110.608 -255.234H299.539V325.222H-110.608V-255.234Z" fill="white"/>
</mask>
<g mask="url(#mask16_341_2742)">
<path d="M13.5364 58.2621H14.7085V67.0273H13.5364V58.2621Z" fill="#858585" stroke="#858585" stroke-width="0.431832"/>
</g>
<mask id="mask17_341_2742" style="mask-type:luminance" maskUnits="userSpaceOnUse" x="-111" y="-256" width="411" height="582">
<path d="M-110.608 -255.234H299.539V325.222H-110.608V-255.234Z" fill="white"/>
</mask>
<g mask="url(#mask17_341_2742)">
<path d="M16.3508 58.2626H21.5733V59.2221H17.5351V62.1357H21.4457V63.0957H17.5351V66.0561H21.7136V67.0278H16.3508V58.2626Z" fill="#858585" stroke="#858585" stroke-width="0.431832"/>
</g>
<mask id="mask18_341_2742" style="mask-type:luminance" maskUnits="userSpaceOnUse" x="-111" y="-256" width="411" height="582">
<path d="M-110.608 -255.234H299.539V325.222H-110.608V-255.234Z" fill="white"/>
</mask>
<g mask="url(#mask18_341_2742)">
<path d="M24.3625 60.0178L24.3498 67.0273H23.2546V58.2621H24.2095L30.8073 65.3302V58.2621H31.9156V67.0273H30.8843L24.3625 60.0178Z" fill="#858585" stroke="#858585" stroke-width="0.431832"/>
</g>
<mask id="mask19_341_2742" style="mask-type:luminance" maskUnits="userSpaceOnUse" x="-111" y="-256" width="411" height="582">
<path d="M-110.608 -255.234H299.539V325.222H-110.608V-255.234Z" fill="white"/>
</mask>
<g mask="url(#mask19_341_2742)">
<path d="M34.7553 60.0178L34.7426 67.0273H33.6475V58.2621H34.6028L41.2006 65.3302V58.2621H42.3089V67.0273H41.2771L34.7553 60.0178Z" fill="#858585" stroke="#858585" stroke-width="0.431832"/>
</g>
<mask id="mask20_341_2742" style="mask-type:luminance" maskUnits="userSpaceOnUse" x="-111" y="-256" width="411" height="582">
<path d="M-110.608 -255.234H299.539V325.222H-110.608V-255.234Z" fill="white"/>
</mask>
<g mask="url(#mask20_341_2742)">
<path d="M45.849 63.4112H49.1096L47.4026 59.8774L45.849 63.4112ZM49.5681 64.3946H45.4027L44.1931 67.0273H42.9956L47.008 58.2158H47.861L52.0522 67.0273H50.842L49.5681 64.3946Z" fill="#858585" stroke="#858585" stroke-width="0.431832"/>
</g>
<mask id="mask21_341_2742" style="mask-type:luminance" maskUnits="userSpaceOnUse" x="-111" y="-256" width="411" height="582">
<path d="M-110.608 -255.234H299.539V325.222H-110.608V-255.234Z" fill="white"/>
</mask>
<g mask="url(#mask21_341_2742)">
<path d="M58.2915 53.8825H60.0492V67.0273H58.2915V53.8825Z" fill="#858585" stroke="#858585" stroke-width="0.431832"/>
</g>
<mask id="mask22_341_2742" style="mask-type:luminance" maskUnits="userSpaceOnUse" x="-111" y="-256" width="411" height="582">
<path d="M-110.608 -255.234H299.539V325.222H-110.608V-255.234Z" fill="white"/>
</mask>
<g mask="url(#mask22_341_2742)">
<path d="M63.8324 60.0178L63.8198 67.0273H62.7246V58.2621H63.6795L70.2777 65.3302V58.2621H71.3861V67.0273H70.3542L63.8324 60.0178Z" fill="#858585" stroke="#858585" stroke-width="0.431832"/>
</g>
<mask id="mask23_341_2742" style="mask-type:luminance" maskUnits="userSpaceOnUse" x="-111" y="-256" width="411" height="582">
<path d="M-110.608 -255.234H299.539V325.222H-110.608V-255.234Z" fill="white"/>
</mask>
<g mask="url(#mask23_341_2742)">
<path d="M72.6337 66.3605V65.0383C73.2324 65.6585 74.1751 66.185 75.1046 66.185C75.8817 66.185 76.6967 65.7053 76.6967 64.9213C76.6967 64.4298 76.4419 64.0671 76.06 63.7395C75.8564 63.5873 75.6396 63.4352 75.3974 63.2948C75.1558 63.1422 74.9005 63.0018 74.6457 62.8614C73.6144 62.288 72.5952 61.6566 72.5952 60.4392C72.5952 58.9761 73.818 58.1453 75.3214 58.1453C76.0727 58.1453 76.7985 58.3447 77.4099 58.7308V59.9361C76.837 59.4441 76.1107 59.117 75.2956 59.117C74.5697 59.117 73.665 59.468 73.665 60.252C73.665 60.6966 73.933 61.036 74.3149 61.3402C74.5059 61.4928 74.7349 61.6327 74.977 61.7732C75.2191 61.9136 75.4866 62.054 75.7414 62.1944C76.7732 62.7795 77.805 63.4698 77.805 64.8043C77.805 66.2786 76.6587 67.1328 75.1173 67.1328C74.2131 67.1328 73.3464 66.8754 72.6337 66.3605Z" fill="#858585" stroke="#858585" stroke-width="0.431832"/>
</g>
<mask id="mask24_341_2742" style="mask-type:luminance" maskUnits="userSpaceOnUse" x="-111" y="-256" width="411" height="582">
<path d="M-110.608 -255.234H299.539V325.222H-110.608V-255.234Z" fill="white"/>
</mask>
<g mask="url(#mask24_341_2742)">
<path d="M78.9758 63.6922V58.2623H80.1601V63.54C80.1601 65.2255 81.154 66.1845 82.9755 66.1845C84.988 66.1845 85.8284 65.2606 85.8284 63.4352V58.2623H86.9879V63.7156C86.9879 65.9978 85.3573 67.1328 83.0135 67.1328C80.6191 67.1328 78.9758 66.0207 78.9758 63.6922Z" fill="#858585" stroke="#858585" stroke-width="0.431832"/>
</g>
<mask id="mask25_341_2742" style="mask-type:luminance" maskUnits="userSpaceOnUse" x="-111" y="-256" width="411" height="582">
<path d="M-110.608 -255.234H299.539V325.222H-110.608V-255.234Z" fill="white"/>
</mask>
<g mask="url(#mask25_341_2742)">
<path d="M89.8023 59.1631V62.1708H90.6042C91.6745 62.1708 92.7702 61.89 92.7702 60.6609C92.7702 59.4328 91.6365 59.1631 90.5662 59.1631H89.8023ZM92.6167 64.5579C92.1709 63.9031 91.4577 63.1303 90.515 63.1303H89.8023V67.0273H88.6428V58.2621H91.0631C92.6805 58.2621 93.9798 59.0578 93.9798 60.6609C93.9798 61.7145 93.458 62.4283 92.2859 62.8378C92.948 63.2361 93.5979 63.9962 94.2093 64.827C94.7827 65.6232 95.3302 66.4657 95.738 67.0273H94.3496L92.6167 64.5579Z" fill="#858585" stroke="#858585" stroke-width="0.431832"/>
</g>
<mask id="mask26_341_2742" style="mask-type:luminance" maskUnits="userSpaceOnUse" x="-111" y="-256" width="411" height="582">
<path d="M-110.608 -255.234H299.539V325.222H-110.608V-255.234Z" fill="white"/>
</mask>
<g mask="url(#mask26_341_2742)">
<path d="M98.4886 63.4112H101.749L100.042 59.8774L98.4886 63.4112ZM102.208 64.3946H98.0429L96.8322 67.0273H95.6353L99.6471 58.2158H100.501L104.692 67.0273H103.481L102.208 64.3946Z" fill="#858585" stroke="#858585" stroke-width="0.431832"/>
</g>
<mask id="mask27_341_2742" style="mask-type:luminance" maskUnits="userSpaceOnUse" x="-111" y="-256" width="411" height="582">
<path d="M-110.608 -255.234H299.539V325.222H-110.608V-255.234Z" fill="white"/>
</mask>
<g mask="url(#mask27_341_2742)">
<path d="M106.805 60.0178L106.793 67.0273H105.698V58.2621H106.652L113.25 65.3302V58.2621H114.358V67.0273H113.327L106.805 60.0178Z" fill="#858585" stroke="#858585" stroke-width="0.431832"/>
</g>
<mask id="mask28_341_2742" style="mask-type:luminance" maskUnits="userSpaceOnUse" x="-111" y="-256" width="411" height="582">
<path d="M-110.608 -255.234H299.539V325.222H-110.608V-255.234Z" fill="white"/>
</mask>
<g mask="url(#mask28_341_2742)">
<path d="M115.53 62.6742C115.53 59.9707 117.772 58.1453 120.625 58.1453C121.873 58.1453 122.713 58.4027 123.848 58.8357V60.0058C122.892 59.4914 121.822 59.1872 120.688 59.1872C118.523 59.1872 116.753 60.5791 116.753 62.6624C116.753 64.7453 118.484 66.126 120.663 66.126C121.848 66.126 122.956 65.8106 123.949 65.2133V66.3956C122.905 66.8988 121.758 67.1328 120.586 67.1328C117.721 67.1328 115.53 65.4244 115.53 62.6742Z" fill="#858585" stroke="#858585" stroke-width="0.431832"/>
</g>
<mask id="mask29_341_2742" style="mask-type:luminance" maskUnits="userSpaceOnUse" x="-111" y="-256" width="411" height="582">
<path d="M-110.608 -255.234H299.539V325.222H-110.608V-255.234Z" fill="white"/>
</mask>
<g mask="url(#mask29_341_2742)">
<path d="M124.979 58.2626H130.202V59.2221H126.164V62.1357H130.075V63.0957H126.164V66.0561H130.342V67.0278H124.979V58.2626Z" fill="#858585" stroke="#858585" stroke-width="0.431832"/>
</g>
<mask id="mask30_341_2742" style="mask-type:luminance" maskUnits="userSpaceOnUse" x="-111" y="-256" width="411" height="582">
<path d="M-110.608 -255.234H299.539V325.222H-110.608V-255.234Z" fill="white"/>
</mask>
<g mask="url(#mask30_341_2742)">
<path d="M136.467 60.5519C136.467 56.4277 139.734 53.7077 144.09 53.7077C146.018 53.7077 147.222 54.1109 148.96 54.7778V56.4453C147.47 55.6379 145.808 55.1464 144.051 55.1464C140.842 55.1464 138.301 57.4633 138.301 60.4642C138.301 63.6406 140.88 65.7819 144.223 65.7819C145.101 65.7819 146.591 65.3777 147.49 65.1325V62.1311H144.739V60.7099H149.266V66.168C147.375 66.8521 146.209 67.1855 144.166 67.1855C139.887 67.1855 136.467 64.6937 136.467 60.5519Z" fill="#858585" stroke="#858585" stroke-width="0.431832"/>
</g>
<mask id="mask31_341_2742" style="mask-type:luminance" maskUnits="userSpaceOnUse" x="-111" y="-256" width="411" height="582">
<path d="M-110.608 -255.234H299.539V325.222H-110.608V-255.234Z" fill="white"/>
</mask>
<g mask="url(#mask31_341_2742)">
<path d="M152.49 59.1631V62.1708H153.293C154.363 62.1708 155.458 61.89 155.458 60.6609C155.458 59.4328 154.325 59.1631 153.254 59.1631H152.49ZM155.305 64.5579C154.86 63.9031 154.146 63.1303 153.204 63.1303H152.49V67.0273H151.332V58.2621H153.752C155.369 58.2621 156.669 59.0578 156.669 60.6609C156.669 61.7145 156.146 62.4283 154.975 62.8378C155.637 63.2361 156.287 63.9962 156.897 64.827C157.471 65.6232 158.018 66.4657 158.427 67.0273H157.038L155.305 64.5579Z" fill="#858585" stroke="#858585" stroke-width="0.431832"/>
</g>
<mask id="mask32_341_2742" style="mask-type:luminance" maskUnits="userSpaceOnUse" x="-111" y="-256" width="411" height="582">
<path d="M-110.608 -255.234H299.539V325.222H-110.608V-255.234Z" fill="white"/>
</mask>
<g mask="url(#mask32_341_2742)">
<path d="M160.132 62.6742C160.132 64.64 161.839 66.126 163.928 66.126C166.107 66.126 167.775 64.6751 167.775 62.6273C167.775 60.6376 166.081 59.175 163.979 59.175C161.737 59.175 160.132 60.5679 160.132 62.6742ZM158.897 62.6742C158.897 59.9707 161.024 58.1453 163.916 58.1453C166.743 58.1453 168.985 59.9473 168.985 62.639C168.985 65.3888 166.718 67.1328 163.852 67.1328C161.062 67.1328 158.897 65.3303 158.897 62.6742Z" fill="#858585"/>
</g>
<mask id="mask33_341_2742" style="mask-type:luminance" maskUnits="userSpaceOnUse" x="-111" y="-256" width="411" height="582">
<path d="M-110.608 -255.234H299.539V325.222H-110.608V-255.234Z" fill="white"/>
</mask>
<g mask="url(#mask33_341_2742)">
<path d="M160.132 62.6742C160.132 64.64 161.839 66.126 163.928 66.126C166.107 66.126 167.775 64.6751 167.775 62.6273C167.775 60.6376 166.081 59.175 163.979 59.175C161.737 59.175 160.132 60.5679 160.132 62.6742ZM158.897 62.6742C158.897 59.9707 161.024 58.1453 163.916 58.1453C166.743 58.1453 168.985 59.9473 168.985 62.639C168.985 65.3888 166.718 67.1328 163.852 67.1328C161.062 67.1328 158.897 65.3303 158.897 62.6742Z" stroke="#858585" stroke-width="0.431832"/>
</g>
<mask id="mask34_341_2742" style="mask-type:luminance" maskUnits="userSpaceOnUse" x="-111" y="-256" width="411" height="582">
<path d="M-110.608 -255.234H299.539V325.222H-110.608V-255.234Z" fill="white"/>
</mask>
<g mask="url(#mask34_341_2742)">
<path d="M170.079 63.6922V58.2623H171.264V63.54C171.264 65.2255 172.258 66.1845 174.079 66.1845C176.092 66.1845 176.932 65.2606 176.932 63.4352V58.2623H178.091V63.7156C178.091 65.9978 176.461 67.1328 174.117 67.1328C171.722 67.1328 170.079 66.0207 170.079 63.6922Z" fill="#858585" stroke="#858585" stroke-width="0.431832"/>
</g>
<mask id="mask35_341_2742" style="mask-type:luminance" maskUnits="userSpaceOnUse" x="-111" y="-256" width="411" height="582">
<path d="M-110.608 -255.234H299.539V325.222H-110.608V-255.234Z" fill="white"/>
</mask>
<g mask="url(#mask35_341_2742)">
<path d="M180.816 59.2104V62.183H182.471C183.465 62.183 184.242 61.6565 184.242 60.6731C184.242 59.5615 183.402 59.2104 182.357 59.2104H180.816ZM180.816 63.142V67.0273H179.632V58.2626H182.663C184.281 58.2626 185.465 59.1397 185.465 60.6965C185.465 62.3698 184.115 63.142 182.421 63.142H180.816Z" fill="#858585" stroke="#858585" stroke-width="0.431832"/>
</g>
</g>
<defs>
<clipPath id="clip0_341_2742">
<rect width="188.171" height="68.0135" fill="white"/>
</clipPath>
</defs>
</svg>
