<svg width="212" height="49" viewBox="0 0 212 49" fill="none" xmlns="http://www.w3.org/2000/svg">
<path d="M184.47 5.46742C184.76 8.73899 181.935 13.5301 180.146 14.4424L178.895 13.3077C181.054 10.551 180.208 5.64738 178.839 4.72764L179.01 4.21777C179.948 4.30025 182.233 4.66516 183.216 4.95258C183.984 5.17502 184.067 5.24498 184.47 5.46742Z" fill="#858585"/>
<path d="M206.943 33.3596C206.943 39.4903 202.431 43.9291 194.764 43.9291C191.766 43.9291 187.655 43.3143 185.831 42.397C185.831 42.397 185.666 42.1346 185.666 41.0849C185.666 38.4731 185.896 33.9519 185.946 33.1921H187.713C187.835 33.9094 187.923 35.1341 188.283 36.3687C189.294 39.8852 192.399 41.1474 195.274 41.1474C198.52 41.1474 201.363 38.9555 201.363 35.6314C201.363 32.7598 199.786 31.5101 195.845 28.366L193.856 26.7714C188.944 22.8425 186.692 19.5535 186.692 15.1847C186.692 9.80874 190.988 5.57495 198.177 5.57495C201.127 5.57495 204.255 6.15477 205.399 6.42719C205.822 6.53716 206.082 6.61465 206.082 6.94456C206.082 7.56438 205.854 11.0209 205.854 14.7249H204.263C203.72 12.3755 203.467 8.36664 197.777 8.36664C193.713 8.36664 192.202 11.4883 192.202 13.5277C192.202 15.1522 192.565 16.8318 197.719 20.6932L199.769 22.2227C205.103 26.2291 206.943 28.7059 206.943 33.3596Z" fill="#858585"/>
<path d="M124.46 26.8314C123.907 27.9061 123.779 27.9885 123.779 30.2379C123.779 30.2379 123.779 33.6744 123.779 34.5567C123.779 35.314 123.752 37.0435 123.889 39.0429C124.077 41.6472 125.771 41.7047 128.841 41.7671V43.3542H112.519V41.7671C116.045 41.6747 117.176 41.5047 117.351 38.9879C117.491 36.9935 117.526 35.4289 117.526 34.6666V29.7206C117.526 28.101 117.061 27.5437 116.273 26.1491C115.534 24.8344 109.864 14.1899 108.195 11.7106C106.756 9.58375 105.122 7.76426 102.335 7.73677V6.26221H112.804C112.804 6.26221 112.987 6.89202 114.393 9.84368C115.074 11.2608 120.904 22.3052 121.675 23.7573L130.946 6.26221H138.4V7.73677C136.236 7.81924 135.06 8.40907 133.281 10.5785C131.714 12.4804 126.026 23.7847 124.46 26.8314Z" fill="#858585"/>
<path d="M15.0857 9.72622C15.0857 9.72622 15.0281 12.273 15.0281 19.4959V30.7478C15.0281 37.5358 15.0456 38.4856 15.8263 39.2703C16.617 40.0551 18.8691 40.2951 22.4798 40.2951C25.8604 40.2951 26.9689 40.1251 28.1099 38.9879C29.3085 37.7908 29.6114 36.6911 30.0468 35.174H31.9786C31.9786 35.174 30.82 40.7899 30.4421 42.1695C30.1569 43.2117 29.9866 43.3542 29.9866 43.3542H4.22327V41.7671C6.92322 41.7346 8.25193 41.5247 8.54469 39.2129C8.75238 37.5583 8.77244 33.9269 8.77244 29.5556V20.1283C8.77244 12.9003 8.74993 12.2805 8.65735 10.7484C8.4947 8.03419 7.15091 7.80425 4.33335 7.73677V6.26221H15.0857V9.72622Z" fill="#858585"/>
<path d="M101.827 23.9298C101.827 35.0066 94.5854 44.0391 82.542 44.0391C70.8864 44.0391 63.83 35.9139 63.83 25.0644C63.83 15.1547 69.9731 5.52246 82.9999 5.52246C94.8957 5.52246 101.827 13.0403 101.827 23.9298ZM94.6029 25.6343C94.6029 15.0298 89.1656 8.36666 81.6913 8.36666C76.1487 8.36666 70.8289 12.568 70.8289 23.3624C70.8289 32.5123 75.4055 41.0324 83.7356 41.0324C90.6769 41.0324 94.6029 35.7214 94.6029 25.6343Z" fill="#858585"/>
<path d="M178.099 23.9297C178.099 30.4628 175.582 35.424 172.922 38.1307C170.727 40.3651 166.258 43.3542 157.45 43.3542C151.83 43.3542 139.081 43.3542 139.081 43.3542V41.7671C142.491 41.6497 143.525 41.5872 143.803 39.0429C144.023 37.016 143.973 31.6025 143.973 29.1532V20.3507C143.973 13.1303 143.95 12.3305 143.86 10.8084C143.683 7.93922 141.981 7.82174 139.536 7.73677V6.26221H154.38C160.33 6.26221 168.247 6.24971 173.437 11.6632C175.814 14.1375 178.099 18.0439 178.099 23.9297ZM171.213 25.6917C171.213 14.095 163.866 9.04639 153.587 9.04639C152.631 9.04639 151.294 9.20637 150.912 9.38632C150.484 9.58627 150.411 9.8287 150.401 10.3535C150.361 11.9756 150.286 15.852 150.286 19.6109V32.7897C150.286 37.6508 150.494 38.6255 151.197 39.3253C151.958 40.0876 153.339 40.7999 156.654 40.7999C166.561 40.7999 171.213 35.8088 171.213 25.6917Z" fill="#858585"/>
<path d="M44.4925 9.72622C44.4925 9.72622 44.4374 12.273 44.4374 19.4959V30.7478C44.4374 37.5358 44.45 38.4856 45.2358 39.2703C46.024 40.0551 48.2735 40.2951 51.8893 40.2951C55.2673 40.2951 56.3783 40.1251 57.5168 38.9879C58.7129 37.7908 59.0157 36.6911 59.4486 35.174H61.3879C61.3879 35.174 60.2268 40.7899 59.849 42.1695C59.5612 43.2117 59.3935 43.3542 59.3935 43.3542H33.6277V41.7671C36.3326 41.7346 37.6588 41.5247 37.9491 39.2129C38.1593 37.5583 38.1793 33.9269 38.1793 29.5556V20.1283C38.1793 12.9003 38.1568 12.2805 38.0642 10.7484C37.9016 8.03419 36.5553 7.80425 33.7402 7.73677V6.26221H44.4925V9.72622Z" fill="#858585"/>
</svg>
