<svg width="70" height="49" viewBox="0 0 70 49" fill="none" xmlns="http://www.w3.org/2000/svg">
<g clip-path="url(#clip0_341_2324)">
<path d="M46.0082 47.3821V41.3796L43.2565 47.3821H41.1455L38.3289 41.3796V47.3821H35.6724V39.9346H40.2484L42.3594 44.5572L44.4078 39.9346H48.6334V47.3821H46.0082Z" fill="#858585"/>
<path d="M55.4174 41.5705V47.3821H52.6344V41.5705H49.5613V39.9346H58.4905V41.5705H55.4174Z" fill="#858585"/>
<mask id="mask0_341_2324" style="mask-type:luminance" maskUnits="userSpaceOnUse" x="-454" y="-309" width="978" height="694">
<path d="M-453.834 -308.968H523.219V384.173H-453.834V-308.968Z" fill="white"/>
</mask>
<g mask="url(#mask0_341_2324)">
<path d="M63.9309 47.512C60.7638 47.512 59.3862 46.5164 59.3862 44.1399V39.934H62.1077V44.1725C62.1077 45.3927 62.7147 46.0029 64.0261 46.0029C65.3073 46.0029 65.9143 45.3927 65.9143 44.1725V39.934H68.5708V44.1399C68.5708 46.4838 67.1317 47.512 63.9309 47.512Z" fill="#858585"/>
</g>
<mask id="mask1_341_2324" style="mask-type:luminance" maskUnits="userSpaceOnUse" x="-454" y="-309" width="978" height="694">
<path d="M-453.834 -308.968H523.219V384.173H-453.834V-308.968Z" fill="white"/>
</mask>
<g mask="url(#mask1_341_2324)">
<path d="M52.2495 14.8225C51.2259 6.63439 44.2812 0.340794 35.8638 0.340794C26.743 0.340794 19.3503 7.7592 19.3503 16.9102C19.3503 25.4209 25.7194 32.4201 33.9442 33.3831C33.9756 23.2038 42.1365 14.9517 52.2495 14.8225Z" fill="#858585"/>
</g>
<mask id="mask2_341_2324" style="mask-type:luminance" maskUnits="userSpaceOnUse" x="-454" y="-309" width="978" height="694">
<path d="M-453.834 -308.968H523.219V384.173H-453.834V-308.968Z" fill="white"/>
</mask>
<g mask="url(#mask2_341_2324)">
<path d="M17.3015 16.9103C17.3015 16.2047 17.3653 15.5294 17.4303 14.8226H17.1413C8.05309 14.8226 0.6604 22.241 0.6604 31.3932C0.6604 40.5442 8.05309 47.9929 17.1413 47.9929C24.9182 47.9929 31.4474 42.5994 33.2068 35.3417C24.2149 34.0247 17.3015 26.2861 17.3015 16.9103Z" fill="#858585"/>
</g>
<mask id="mask3_341_2324" style="mask-type:luminance" maskUnits="userSpaceOnUse" x="-454" y="-309" width="978" height="694">
<path d="M-453.834 -308.968H523.219V384.173H-453.834V-308.968Z" fill="white"/>
</mask>
<g mask="url(#mask3_341_2324)">
<path d="M35.9274 38.2952H68.8915V35.2759H35.9274V38.2952Z" fill="#858585"/>
</g>
<mask id="mask4_341_2324" style="mask-type:luminance" maskUnits="userSpaceOnUse" x="-454" y="-309" width="978" height="694">
<path d="M-453.834 -308.968H523.219V384.173H-453.834V-308.968Z" fill="white"/>
</mask>
<g mask="url(#mask4_341_2324)">
<path d="M52.5058 16.8462C43.4164 16.8462 36.0237 24.2635 36.0237 33.3831H68.9554C68.9554 24.2635 61.5952 16.8462 52.5058 16.8462Z" fill="#858585"/>
</g>
</g>
<defs>
<clipPath id="clip0_341_2324">
<rect width="69.6328" height="48.9049" fill="white"/>
</clipPath>
</defs>
</svg>
