<svg width="149" height="52" viewBox="0 0 149 52" fill="none" xmlns="http://www.w3.org/2000/svg">
<g clip-path="url(#clip0_341_2278)">
<mask id="mask0_341_2278" style="mask-type:luminance" maskUnits="userSpaceOnUse" x="7" y="-1" width="135" height="63">
<path d="M7.15436 61.876H141.286V-0.179665H7.15436V61.876Z" fill="white"/>
</mask>
<g mask="url(#mask0_341_2278)">
<path d="M32.8275 17.5571C33.5303 18.0397 35.2359 19.0085 37.743 18.121C63.9259 8.85366 65.6788 6.87007 83.3709 15.8601C89.6385 19.0413 93.6552 16.4913 93.9245 16.2216C73.6728 -7.45839 75.7817 3.1552 32.8275 17.5571Z" fill="#858585"/>
</g>
<mask id="mask1_341_2278" style="mask-type:luminance" maskUnits="userSpaceOnUse" x="7" y="-1" width="135" height="63">
<path d="M7.15436 61.876H141.286V-0.179665H7.15436V61.876Z" fill="white"/>
</mask>
<g mask="url(#mask1_341_2278)">
<path d="M32.8275 17.5571C33.5303 18.0397 35.2359 19.0085 37.743 18.121C63.9259 8.85366 65.6788 6.87007 83.3709 15.8601C89.6385 19.0413 93.6552 16.4913 93.9245 16.2216C73.6728 -7.45839 75.7817 3.1552 32.8275 17.5571Z" fill="#858585" stroke="#858585" stroke-width="0.310919" stroke-linecap="round" stroke-linejoin="round"/>
</g>
<mask id="mask2_341_2278" style="mask-type:luminance" maskUnits="userSpaceOnUse" x="7" y="-1" width="135" height="63">
<path d="M7.15436 61.876H141.286V-0.179665H7.15436V61.876Z" fill="white"/>
</mask>
<g mask="url(#mask2_341_2278)">
<path d="M33.2291 17.5551C34.0121 18.0377 35.8305 18.7461 38.7068 18.1309C79.497 9.39576 75.5052 5.25757 94.251 16.2367C100.23 19.7361 104.4 16.8836 104.697 16.6127C82.0856 -7.13579 81.372 -3.34223 33.2291 17.5551Z" fill="#858585" stroke="#858585" stroke-width="0.310919" stroke-linecap="round" stroke-linejoin="round"/>
</g>
<mask id="mask3_341_2278" style="mask-type:luminance" maskUnits="userSpaceOnUse" x="7" y="-1" width="135" height="63">
<path d="M7.15436 61.876H141.286V-0.179665H7.15436V61.876Z" fill="white"/>
</mask>
<g mask="url(#mask3_341_2278)">
<path d="M89.0573 2.68746C72.9996 -3.39367 67.6017 3.10816 33.2277 17.5574C34.0121 18.0388 35.8584 18.8747 38.703 18.1331C55.1537 13.8268 64.5221 10.8047 70.9208 9.40326C81.0986 7.17521 93.7113 5.1983 89.0573 2.68746Z" fill="#858585" stroke="#858585" stroke-width="0.310919" stroke-linecap="round" stroke-linejoin="round"/>
</g>
<mask id="mask4_341_2278" style="mask-type:luminance" maskUnits="userSpaceOnUse" x="7" y="-1" width="135" height="63">
<path d="M7.15436 61.876H141.286V-0.179665H7.15436V61.876Z" fill="white"/>
</mask>
<g mask="url(#mask4_341_2278)">
<path d="M33.2291 17.5569C34.1015 18.0435 37.7949 19.4961 45.4094 17.7529C86.3084 8.38023 82.4968 2.13478 104.64 16.4975C111.244 20.7791 116.758 17.2611 117.089 16.9905C90.3187 -6.89095 88.751 -2.62764 33.2291 17.5569Z" fill="#858585" stroke="#858585" stroke-width="0.310919" stroke-linecap="round" stroke-linejoin="round"/>
</g>
<mask id="mask5_341_2278" style="mask-type:luminance" maskUnits="userSpaceOnUse" x="-1" y="-44" width="150" height="150">
<path d="M-0.0725098 -43.4777H148.513V105.175H-0.0725098V-43.4777Z" fill="white"/>
</mask>
<g mask="url(#mask5_341_2278)">
<path d="M11.6772 39.0984C12.1488 39.1457 12.5641 39.1785 12.9187 39.1983C13.271 39.2195 13.7873 39.2325 14.4693 39.2325C15.3837 39.2325 16.2944 39.1603 17.1943 39.0183C18.0957 38.8722 18.9013 38.6118 19.612 38.2347C20.319 37.8627 20.8892 37.3448 21.3176 36.6915C21.7445 36.0409 21.9627 35.1902 21.9627 34.1531C21.9627 33.2435 21.7761 32.4796 21.4055 31.858C21.0378 31.2401 20.5268 30.7419 19.8761 30.3645C19.2258 29.9873 18.444 29.7217 17.5295 29.5692C16.611 29.4116 15.6203 29.3341 14.5572 29.3341C13.4655 29.3341 12.5037 29.3695 11.6772 29.4339V39.0984ZM7.15466 26.7785C7.59868 26.7338 8.12163 26.6905 8.72874 26.6458C9.33179 26.6023 9.96763 26.5631 10.6339 26.53C11.3003 26.4946 11.9651 26.467 12.6297 26.4458C13.2946 26.4237 13.9374 26.4118 14.5572 26.4118C16.1827 26.4118 17.728 26.5352 19.1904 26.7785C20.6542 27.023 21.9378 27.4437 23.0466 28.0392C24.1543 28.6358 25.0334 29.4299 25.6837 30.4159C26.3355 31.4004 26.6588 32.6346 26.6588 34.1214C26.6588 35.6687 26.3091 36.9569 25.617 37.985C24.9217 39.0183 24.0061 39.8425 22.8708 40.4615C21.7329 41.082 20.4386 41.5184 18.9919 41.7736C17.5426 42.0285 16.0646 42.1574 14.5572 42.1574C13.9951 42.1574 13.5009 42.1507 13.074 42.1391C12.6445 42.1287 12.1778 42.1008 11.6772 42.0572V50.6913C10.9662 50.7584 10.216 50.7886 9.41595 50.7886C9.05987 50.7886 8.68405 50.786 8.28473 50.7741C7.88656 50.7624 7.50929 50.7346 7.15466 50.6913V26.7785Z" fill="#858585"/>
</g>
<mask id="mask6_341_2278" style="mask-type:luminance" maskUnits="userSpaceOnUse" x="-1" y="-44" width="150" height="150">
<path d="M-0.0725098 -43.4777H148.513V105.175H-0.0725098V-43.4777Z" fill="white"/>
</mask>
<g mask="url(#mask6_341_2278)">
<path d="M30.0726 33.6531C30.397 33.6084 30.7099 33.5768 31.003 33.553C31.2958 33.5295 31.6098 33.5205 31.9345 33.5205C32.2575 33.5205 32.5849 33.5295 32.9093 33.553C33.2352 33.5768 33.5295 33.6084 33.7977 33.6531C33.887 33.9859 33.9724 34.4234 34.0603 34.9675C34.1511 35.5081 34.1958 35.9668 34.1958 36.344C34.8145 35.5909 35.637 34.9388 36.6553 34.3842C37.6751 33.8305 38.9825 33.553 40.5789 33.553C40.814 33.553 41.0583 33.5599 41.3108 33.5704C41.5592 33.5835 41.7745 33.5991 41.953 33.6203C42.0111 33.8172 42.0543 34.0317 42.0859 34.2524C42.1161 34.4733 42.1292 34.7047 42.1292 34.9492C42.1292 35.2134 42.1068 35.4948 42.0636 35.7799C42.0189 36.069 41.9675 36.344 41.9098 36.6108C41.6707 36.5646 41.4278 36.5423 41.1753 36.5423H40.5789C39.7785 36.5423 39.0205 36.6239 38.2953 36.7911C37.5712 36.9592 36.9209 37.2536 36.3454 37.6732C35.7684 38.0936 35.3099 38.6693 34.9683 39.4004C34.6305 40.1312 34.4599 41.071 34.4599 42.2227V50.6922C34.1355 50.7355 33.7753 50.7656 33.3757 50.7921C32.9764 50.8133 32.6151 50.8223 32.2892 50.8223C31.9647 50.8223 31.602 50.8133 31.2026 50.7921C30.803 50.7656 30.4287 50.7355 30.0726 50.6922V33.6531Z" fill="#858585"/>
</g>
<mask id="mask7_341_2278" style="mask-type:luminance" maskUnits="userSpaceOnUse" x="-1" y="-44" width="150" height="150">
<path d="M-0.0725098 -43.4777H148.513V105.175H-0.0725098V-43.4777Z" fill="white"/>
</mask>
<g mask="url(#mask7_341_2278)">
<path d="M53.3001 48.4669C55.338 48.4669 56.8476 47.9172 57.8227 46.8079C58.7963 45.7025 59.2839 44.1617 59.2839 42.1927C59.2839 40.2195 58.7963 38.6865 57.8227 37.5891C56.8476 36.4939 55.338 35.9484 53.3001 35.9484C51.2623 35.9484 49.7602 36.4939 48.8011 37.5891C47.8393 38.6865 47.3596 40.2195 47.3596 42.1927C47.3596 44.1617 47.8393 45.7025 48.8011 46.8079C49.7602 47.9172 51.2623 48.4669 53.3001 48.4669ZM53.3001 51.0918C51.5264 51.0918 49.9732 50.8645 48.6461 50.4095C47.3164 49.9574 46.2087 49.3318 45.3218 48.5351C44.4349 47.7372 43.7767 46.796 43.3484 45.7115C42.9198 44.6245 42.7059 43.453 42.7059 42.1927C42.7059 40.9291 42.9198 39.7567 43.3484 38.6697C43.7767 37.5853 44.4349 36.6452 45.3218 35.847C46.2087 35.0506 47.3164 34.4183 48.6461 33.9558C49.9732 33.4889 51.5264 33.2549 53.3001 33.2549C55.0713 33.2549 56.6244 33.4889 57.9553 33.9558C59.2839 34.4183 60.3913 35.0506 61.2796 35.847C62.1665 36.6452 62.8224 37.5853 63.2519 38.6697C63.6802 39.7567 63.8958 40.9291 63.8958 42.1927C63.8958 43.453 63.6802 44.6245 63.2519 45.7115C62.8224 46.796 62.1665 47.7372 61.2796 48.5351C60.3913 49.3318 59.2839 49.9574 57.9553 50.4095C56.6244 50.8645 55.0713 51.0918 53.3001 51.0918Z" fill="#858585"/>
</g>
<mask id="mask8_341_2278" style="mask-type:luminance" maskUnits="userSpaceOnUse" x="-1" y="-44" width="150" height="150">
<path d="M-0.0725098 -43.4777H148.513V105.175H-0.0725098V-43.4777Z" fill="white"/>
</mask>
<g mask="url(#mask8_341_2278)">
<path d="M79.8514 42.689C79.4089 42.646 78.845 42.601 78.1656 42.5563C77.4889 42.5119 76.9108 42.4895 76.4392 42.4895C74.6048 42.4895 73.208 42.7456 72.2489 43.2557C71.2886 43.7644 70.8074 44.5372 70.8074 45.5784C70.8074 46.2436 70.9694 46.763 71.2964 47.1416C71.6223 47.5147 72.028 47.8027 72.5159 48.0027C73.0031 48.2051 73.5406 48.3244 74.1332 48.3668C74.7232 48.4141 75.2842 48.4362 75.8164 48.4362C76.4958 48.4362 77.2013 48.406 77.925 48.3494C78.6468 48.2968 79.2893 48.2115 79.8514 48.1V42.689ZM79.8514 39.4671C79.8514 38.1632 79.4089 37.2562 78.5217 36.7423C77.6322 36.2359 76.351 35.9784 74.6654 35.9784C73.6285 35.9784 72.6627 36.0428 71.7616 36.1625C70.8588 36.2847 69.9798 36.445 69.1231 36.6435C68.5636 35.9139 68.2821 35.0397 68.2821 34.0198C69.2847 33.7767 70.3951 33.5898 71.6052 33.4585C72.8165 33.323 73.9861 33.2547 75.1095 33.2547C78.0632 33.2547 80.3099 33.7593 81.846 34.7665C83.3806 35.7757 84.152 37.3877 84.152 39.6012V50.261C83.1165 50.4395 81.8605 50.621 80.3837 50.8106C78.9053 50.9955 77.3983 51.0942 75.8611 51.0942C74.4118 51.0942 73.107 50.9917 71.9375 50.7932C70.7709 50.5946 69.7827 50.2755 68.9681 49.8313C68.1561 49.3879 67.5293 48.8226 67.0853 48.1354C66.6424 47.4502 66.4189 46.6196 66.4189 45.6469C66.4189 44.6911 66.6793 43.8576 67.197 43.1401C67.7133 42.4181 68.4135 41.8217 69.3004 41.343C70.1873 40.8674 71.2097 40.5123 72.3606 40.2821C73.5116 40.048 74.7232 39.9325 75.9937 39.9325C76.9398 39.9325 77.7152 39.9496 78.322 39.9827C78.9262 40.0167 79.4387 40.055 79.8514 40.0983V39.4671Z" fill="#858585"/>
</g>
<mask id="mask9_341_2278" style="mask-type:luminance" maskUnits="userSpaceOnUse" x="-1" y="-44" width="150" height="150">
<path d="M-0.0725098 -43.4777H148.513V105.175H-0.0725098V-43.4777Z" fill="white"/>
</mask>
<g mask="url(#mask9_341_2278)">
<path d="M88.9398 33.6531C89.2628 33.6084 89.5794 33.5768 89.8923 33.553C90.2025 33.5295 90.5165 33.5205 90.8436 33.5205C91.1669 33.5205 91.473 33.5295 91.7513 33.553C92.0325 33.5768 92.3335 33.6084 92.6605 33.6531C92.7488 33.9859 92.8396 34.4234 92.9246 34.9675C93.0155 35.5081 93.0602 35.9668 93.0602 36.344C93.3243 35.9445 93.6594 35.563 94.0561 35.1989C94.4558 34.8325 94.9273 34.5088 95.4764 34.217C96.0217 33.9319 96.6512 33.699 97.3596 33.5205C98.0677 33.3442 98.8533 33.2562 99.7085 33.2562C101.483 33.2562 102.849 33.528 103.807 34.0686C104.77 34.6115 105.502 35.3711 106.004 36.344C106.298 35.9668 106.66 35.5909 107.09 35.2134C107.519 34.8374 107.999 34.5088 108.529 34.217C109.063 33.9319 109.668 33.699 110.35 33.5205C111.027 33.3442 111.796 33.2562 112.653 33.2562C115.283 33.2562 117.196 33.8082 118.394 34.9187C119.588 36.0232 120.188 37.6613 120.188 39.8327V50.6922C119.862 50.7355 119.493 50.7656 119.081 50.7921C118.664 50.8133 118.296 50.8223 117.971 50.8223C117.645 50.8223 117.284 50.8133 116.887 50.7921C116.486 50.7656 116.125 50.7355 115.799 50.6922V40.7952C115.799 39.2677 115.487 38.1214 114.868 37.3576C114.249 36.5925 113.227 36.2113 111.81 36.2113C110.3 36.2113 109.085 36.6216 108.155 37.4418C107.223 38.2605 106.757 39.4686 106.757 41.062V50.6922C106.43 50.7355 106.072 50.7656 105.67 50.7921C105.273 50.8133 104.909 50.8223 104.586 50.8223C104.259 50.8223 103.896 50.8133 103.498 50.7921C103.1 50.7656 102.737 50.7355 102.414 50.6922V40.5638C102.414 39.0784 102.117 37.9658 101.526 37.2249C100.935 36.4819 99.9912 36.1114 98.6893 36.1114C97.9493 36.1114 97.2554 36.2337 96.6065 36.4804C95.9561 36.7211 95.3859 37.0867 94.9009 37.5718C94.4134 38.0608 94.0286 38.676 93.7474 39.4161C93.4662 40.1599 93.3243 41.0144 93.3243 41.9928V50.6922C92.9998 50.7355 92.637 50.7656 92.2429 50.7921C91.8407 50.8133 91.4783 50.8223 91.1538 50.8223C90.8264 50.8223 90.4599 50.8133 90.0461 50.7921C89.6323 50.7656 89.2628 50.7355 88.9398 50.6922V33.6531Z" fill="#858585"/>
</g>
<mask id="mask10_341_2278" style="mask-type:luminance" maskUnits="userSpaceOnUse" x="-1" y="-44" width="150" height="150">
<path d="M-0.0725098 -43.4777H148.513V105.175H-0.0725098V-43.4777Z" fill="white"/>
</mask>
<g mask="url(#mask10_341_2278)">
<path d="M136.989 42.689C136.545 42.646 135.983 42.601 135.305 42.5563C134.627 42.5119 134.048 42.4895 133.574 42.4895C131.743 42.4895 130.346 42.7456 129.387 43.2557C128.426 43.7644 127.947 44.5372 127.947 45.5784C127.947 46.2436 128.108 46.763 128.434 47.1416C128.76 47.5147 129.166 47.8027 129.651 48.0027C130.139 48.2051 130.68 48.3244 131.271 48.3668C131.859 48.4141 132.423 48.4362 132.954 48.4362C133.633 48.4362 134.336 48.406 135.058 48.3494C135.784 48.2968 136.427 48.2115 136.989 48.1V42.689ZM136.989 39.4671C136.989 38.1632 136.545 37.2562 135.659 36.7423C134.77 36.2359 133.486 35.9784 131.803 35.9784C130.767 35.9784 129.799 36.0428 128.899 36.1625C127.997 36.2847 127.117 36.445 126.262 36.6435C125.7 35.9139 125.419 35.0397 125.419 34.0198C126.421 33.7767 127.535 33.5898 128.743 33.4585C129.955 33.323 131.121 33.2547 132.247 33.2547C135.202 33.2547 137.445 33.7593 138.984 34.7665C140.518 35.7757 141.286 37.3877 141.286 39.6012V50.261C140.254 50.4395 138.998 50.621 137.52 50.8106C136.043 50.9955 134.536 51.0942 132.997 51.0942C131.549 51.0942 130.242 50.9917 129.078 50.7932C127.909 50.5946 126.92 50.2755 126.106 49.8313C125.291 49.3879 124.666 48.8226 124.223 48.1354C123.78 47.4502 123.557 46.6196 123.557 45.6469C123.557 44.6911 123.816 43.8576 124.334 43.1401C124.851 42.4181 125.551 41.8217 126.438 41.343C127.324 40.8674 128.346 40.5123 129.497 40.2821C130.651 40.048 131.859 39.9325 133.131 39.9325C134.077 39.9325 134.854 39.9496 135.46 39.9827C136.067 40.0167 136.574 40.055 136.989 40.0983V39.4671Z" fill="#858585"/>
</g>
</g>
<defs>
<clipPath id="clip0_341_2278">
<rect width="148.658" height="51.172" fill="white"/>
</clipPath>
</defs>
</svg>
