<svg width="61" height="61" viewBox="0 0 61 61" fill="none" xmlns="http://www.w3.org/2000/svg">
<g clip-path="url(#clip0_341_2734)">
<path d="M24.2287 18.3096L24.9021 21.7598H30.6942L30.673 21.82L23.6562 42.7824H36.1582L35.3379 39.1093H28.9876L29.008 39.051L35.7812 18.3096H24.2287Z" fill="#858585"/>
<path d="M20.0229 24.5164H14.0708L14.494 27.327V36.4088H17.8328V33.5571H17.8771C17.8771 33.5571 19.8259 33.5595 20.0229 33.5595C22.4628 33.5595 24.5125 31.4477 24.5125 29.0095C24.5125 26.5672 22.4628 24.5164 20.0229 24.5164ZM19.7257 30.9215C19.7042 30.9215 17.8771 30.9252 17.8771 30.9252H17.8328V27.3329H17.8771C17.8771 27.3329 19.6637 27.3294 19.7257 27.3294C20.6617 27.3294 21.4873 28.1524 21.4873 29.0879C21.4871 30.0292 20.6617 30.9215 19.7257 30.9215Z" fill="#858585"/>
<path d="M43.3176 31.5751C43.3176 32.6853 42.4104 33.5215 41.3758 33.5215C40.3413 33.5215 39.4349 32.6853 39.4349 31.5751C39.4349 31.4803 39.4383 24.883 39.4391 24.2354L36.0681 24.782V31.4161C36.0681 34.3984 38.4712 36.7352 41.3761 36.7352C44.281 36.7352 46.6847 34.3987 46.6847 31.4161V24.2356L43.3101 24.7823C43.3107 25.3257 43.3176 31.4849 43.3176 31.5751Z" fill="#858585"/>
<path d="M30.4469 -0.000244141C13.6584 0.00324637 0 13.6627 0 30.448C0 47.2323 13.6584 60.888 30.4469 60.888C47.2301 60.888 60.8861 47.2323 60.8883 30.448C60.8861 13.6627 47.2299 0.00297787 30.4469 -0.000244141ZM30.4475 51.8516C18.6619 51.8336 9.05735 42.2299 9.03667 30.4456C9.05735 18.6619 18.6622 9.05764 30.4469 9.0367H30.4475C42.2264 9.05764 51.8293 18.6619 51.8545 30.4456C51.829 42.2299 42.2264 51.8334 30.4475 51.8516Z" fill="#858585"/>
</g>
<defs>
<clipPath id="clip0_341_2734">
<rect width="60.8883" height="60.8883" fill="white"/>
</clipPath>
</defs>
</svg>
