<svg width="83" height="61" viewBox="0 0 83 61" fill="none" xmlns="http://www.w3.org/2000/svg">
<g clip-path="url(#clip0_341_2604)">
<path d="M5.22632 43.0957H8.42409V52.6037C8.42409 55.7357 10.2987 57.6373 12.7246 57.6373C15.1504 57.6373 17.025 55.7357 17.025 52.6037V43.0957H20.2228V53.2748C20.2228 57.1899 17.2455 60.6575 12.7246 60.6575C8.20356 60.6575 5.22632 57.3017 5.22632 53.2748V43.0957Z" fill="#858585"/>
<path d="M37.8655 60.3219V43.0957H34.6678V53.8341L25.4052 43.0957H23.7512V60.3219H26.8387V49.5835L36.1012 60.3219H37.8655Z" fill="#858585"/>
<path d="M41.615 43.0957H44.923V60.3219H41.615V43.0957Z" fill="#858585"/>
<path d="M65.8737 51.7085C65.8737 46.6749 61.7938 42.5361 56.7214 42.5361C51.6491 42.5361 47.6794 46.6749 47.6794 51.7085C47.6794 56.7422 51.7594 60.8809 56.7214 60.8809C58.596 60.8809 60.3603 60.3216 61.904 59.3149L63.3375 60.7691L65.4326 58.6438L63.9991 57.1896C65.2121 55.6236 65.8737 53.722 65.8737 51.7085ZM56.7214 57.9726C53.4134 57.9726 50.7669 55.1762 50.7669 51.7085C50.7669 48.2409 53.4134 45.4445 56.7214 45.4445C60.0295 45.4445 62.6759 48.2409 62.6759 51.7085C62.6759 52.939 62.3451 53.9457 61.7938 54.9524L59.8089 52.939L57.8241 55.0643L59.8089 57.0778C58.9268 57.637 57.8241 57.9726 56.7214 57.9726Z" fill="#858585"/>
<path d="M79.3264 60.3219H82.855L75.6876 43.0957H73.4822L66.0942 60.3219H69.5125L70.8358 57.078H78.1135L79.3264 60.3219ZM71.8282 54.1697L74.3643 48.0175L76.7902 54.1697H71.8282Z" fill="#858585"/>
<path d="M32.1319 34.3704H13.1658L15.3711 30.4553H26.5082C26.9493 30.9028 27.5006 31.3502 28.052 31.7976C29.2649 32.6925 30.6984 33.5874 32.1319 34.3704Z" fill="#858585"/>
<path d="M36.322 5.84644C35.6604 6.40573 31.801 14.124 36.6528 20.8355C37.976 22.7371 39.9609 25.0861 42.2765 26.4284C44.7024 27.8826 46.3564 28.2182 47.3488 28.5537C49.2234 29.113 51.9801 29.2249 55.6189 29.4486C58.5962 29.5605 64.6609 29.6723 65.6533 29.6723H66.756L69.2922 34.706C69.2922 34.706 60.4707 34.706 56.3908 34.4822C51.7595 34.2585 48.231 33.9229 45.9153 33.3636C44.5921 33.0281 42.6073 32.5806 39.5198 30.7909C36.5425 29.113 33.5653 26.0928 32.0216 23.5201C28.2724 17.4797 29.1546 13.341 29.7059 11.3275C30.8086 9.87334 32.1318 8.41918 33.6756 7.3006C34.8885 6.51759 35.6604 6.18201 36.322 5.84644Z" fill="#858585"/>
<path d="M42.3868 34.0346C41.2841 34.2583 40.1814 34.3702 39.189 34.3702C35.4399 34.3702 32.0216 32.5804 29.0443 30.3433C25.626 27.6587 23.0898 23.8555 22.4282 19.8286C22.318 19.3811 22.318 18.8218 22.2077 18.1507C21.9872 15.3542 22.318 11.7747 24.3028 8.41897C25.9568 5.51065 28.493 2.9379 32.5729 1.26002C34.3372 0.477014 37.976 -0.305995 42.2765 0.812591C46.7975 2.04304 50.6569 4.8395 53.193 8.64269C53.193 8.64269 49.3336 3.4972 42.7176 2.9379C42.3868 2.9379 42.1662 2.9379 41.8354 2.9379C38.5274 2.82605 35.4399 4.05649 32.7934 5.95809C31.1394 7.18853 29.7059 8.64269 28.493 10.4324C28.3827 10.5443 28.2724 10.8799 27.9416 11.3273C27.8314 11.4392 27.8314 11.551 27.7211 11.6629C26.9492 13.2289 25.8465 16.0254 25.7363 19.493C25.626 24.0792 27.7211 27.3231 28.493 28.4417C28.493 28.4417 30.3675 29.784 33.2345 30.3433C34.3372 30.567 35.4399 30.567 36.4323 30.567C37.2042 31.2381 37.976 31.7974 38.8582 32.2449C40.1814 33.0279 41.3943 33.5872 42.3868 34.0346Z" fill="#858585"/>
<path d="M49.6643 7.4126C52.0902 8.86676 55.6188 13.453 55.7291 17.7036C55.9496 21.7305 53.9648 25.6455 52.6416 27.5471C50.5465 27.4353 48.8925 27.2116 47.7898 26.876C47.459 26.7641 47.0179 26.6523 46.4666 26.5404C47.9 25.1981 49.9951 22.7372 50.9875 18.934C52.5313 13.6767 51.0978 10.0972 49.6643 7.4126Z" fill="#858585"/>
</g>
<defs>
<clipPath id="clip0_341_2604">
<rect width="83" height="61" fill="white"/>
</clipPath>
</defs>
</svg>
