<svg width="175" height="52" viewBox="0 0 175 52" fill="none" xmlns="http://www.w3.org/2000/svg">
<g clip-path="url(#clip0_341_2565)">
<path d="M25.5588 15.1583C23.4195 15.1583 21.6344 13.8357 21.0123 11.7883L18.2082 2.57066C17.9284 1.65135 18.4468 0.679227 19.3664 0.399353C20.288 0.120439 21.2586 0.637943 21.5374 1.55821L24.3411 10.7763C24.5959 11.613 25.3375 11.6788 25.5588 11.6788C25.7801 11.6788 26.5217 11.613 26.7765 10.7763L29.5806 1.55773C29.8605 0.637463 30.8315 0.118999 31.7516 0.398873C32.6708 0.678747 33.1897 1.65086 32.9099 2.57018L30.1058 11.7883C29.4832 13.8357 27.6981 15.1583 25.5588 15.1583ZM25.5588 36.5041C23.4195 36.5041 21.6344 37.8266 21.0123 39.8741L18.2087 49.0917C17.9289 50.011 18.4472 50.9831 19.3669 51.263C20.2885 51.5419 21.259 51.0244 21.5379 50.1041L24.3415 40.8865C24.5964 40.0498 25.338 39.984 25.5593 39.984C25.7806 39.984 26.5221 40.0498 26.777 40.8865L29.5811 50.1041C29.861 51.0244 30.832 51.5428 31.7521 51.263C32.6713 50.9831 33.1902 50.011 32.9103 49.0917L30.1062 39.8741C29.4832 37.8261 27.6981 36.5041 25.5588 36.5041ZM39.6 30.3785L48.8168 33.183C49.7359 33.4629 50.7079 32.9444 50.9878 32.0246C51.2676 31.1044 50.7492 30.1332 49.8291 29.8533L40.6123 27.0488C39.7757 26.7939 39.7099 26.0522 39.7099 25.8309C39.7099 25.6096 39.7757 24.8679 40.6123 24.613L49.8291 21.809C50.7492 21.5301 51.2671 20.5589 50.9878 19.6377C50.7079 18.7184 49.7359 18.1994 48.8168 18.4793L39.6 21.2833C37.5528 21.906 36.2304 23.6913 36.2304 25.8304C36.2304 27.9696 37.5523 29.7559 39.6 30.3785ZM14.8876 25.8309C14.8876 23.6913 13.5653 21.906 11.5181 21.2838L2.30179 18.4793C1.38261 18.1994 0.410623 18.7179 0.130788 19.6377C-0.148087 20.5594 0.369344 21.5301 1.28949 21.809L10.5063 24.613C11.3429 24.8679 11.4087 25.6096 11.4087 25.8309C11.4087 26.0522 11.3429 26.7939 10.5063 27.0488L1.28901 29.8533C0.368864 30.1332 -0.149527 31.1044 0.130308 32.0246C0.410143 32.9439 1.38213 33.4629 2.30131 33.183L11.5181 30.3785C13.5653 29.7559 14.8876 27.9705 14.8876 25.8309ZM38.7024 19.1168L47.2026 14.5817C48.0502 14.1295 48.3713 13.0753 47.9187 12.2275C47.4661 11.3792 46.4125 11.0586 45.5643 11.5117L37.0642 16.0469C36.2924 16.4583 35.7216 15.9801 35.5652 15.8236C35.4087 15.6671 34.9306 15.0963 35.342 14.3244L39.8764 5.82353C40.3296 4.97575 40.0094 3.92298 39.1608 3.46885C38.3131 3.01663 37.2591 3.33731 36.8069 4.18509L32.2724 12.686C31.2649 14.574 31.5923 16.7713 33.1047 18.2844C34.6172 19.7975 36.8146 20.1245 38.7024 19.1168ZM18.0129 33.3779C16.4999 31.8648 14.303 31.5379 12.4152 32.5455L3.91552 37.0806C3.06785 37.5328 2.74674 38.587 3.19937 39.4348C3.65344 40.2836 4.70606 40.6042 5.55373 40.1506L14.0534 35.6155C14.8252 35.2041 15.3959 35.6822 15.5524 35.8387C15.7089 35.9952 16.187 36.566 15.7756 37.3379L11.2411 45.8393C10.7885 46.6875 11.1087 47.7413 11.9568 48.194C12.8045 48.6462 13.8585 48.3255 14.3107 47.4777L18.8452 38.9764C19.8531 37.0883 19.5258 34.8906 18.0129 33.3779ZM32.2724 38.9764L36.8069 47.4777C37.2591 48.3255 38.3131 48.6466 39.1608 48.194C40.0089 47.7413 40.3296 46.6875 39.8764 45.8393L35.342 37.3379C34.9306 36.566 35.4087 35.9952 35.5652 35.8387C35.7216 35.6822 36.2924 35.2041 37.0642 35.6155L45.5639 40.1506C46.4115 40.6038 47.4642 40.2836 47.9182 39.4348C48.3704 38.587 48.0497 37.5328 47.2021 37.0806L38.7024 32.5455C36.8146 31.5379 34.6177 31.8653 33.1047 33.3779C31.5918 34.8906 31.2649 37.0883 32.2724 38.9764ZM18.0133 18.2839C19.5263 16.7708 19.8531 14.5736 18.8456 12.6855L14.3112 4.18509C13.859 3.33731 12.805 3.01615 11.9573 3.46885C11.1087 3.92298 10.788 4.97575 11.2416 5.82353L15.7761 14.3244C16.1875 15.0963 15.7094 15.6671 15.5529 15.8236C15.3964 15.9801 14.8257 16.4583 14.0539 16.0469L5.55373 11.5117C4.70558 11.059 3.652 11.3792 3.19937 12.2275C2.74722 13.0753 3.06785 14.1295 3.91552 14.5817L12.4157 19.1168C14.3035 20.1245 16.5004 19.7971 18.0133 18.2839Z" fill="#858585"/>
<path d="M85.2843 23.4374C86.3629 23.4374 87.2403 22.5598 87.2403 21.4811V5.98773C87.2403 4.90904 86.3629 4.03149 85.2843 4.03149C84.2058 4.03149 83.3284 4.90904 83.3284 5.98773V21.4806C83.3279 22.5598 84.2053 23.4374 85.2843 23.4374Z" fill="#858585"/>
<path d="M78.3129 4.07625C77.2982 3.80886 76.2562 4.41277 75.9869 5.42906L72.543 18.4406C72.2972 19.369 71.4558 20.018 70.4972 20.018C69.5382 20.018 68.6973 19.3695 68.452 18.441L65.0081 5.42906C64.7388 4.41277 63.6967 3.80886 62.682 4.07625C61.6659 4.34556 61.0606 5.38681 61.3294 6.40261L64.7733 19.4146C65.4602 22.0103 67.8136 23.8234 70.4972 23.8234C73.1804 23.8234 75.5343 22.0107 76.2216 19.4146L79.6656 6.40261C79.9339 5.38681 79.3286 4.34556 78.3129 4.07625Z" fill="#858585"/>
<path d="M100.934 15.5673C101.945 15.5673 102.767 14.745 102.767 13.7345C102.767 12.724 101.945 11.9016 100.934 11.9016H95.9709V7.82832H103.523C104.534 7.82832 105.356 7.00598 105.356 5.99546C105.356 4.98494 104.533 4.1626 103.523 4.1626H94.0149C92.9364 4.1626 92.059 5.04014 92.059 6.11884V21.3511C92.059 22.4298 92.9364 23.3073 94.0149 23.3073H104.265C105.276 23.3073 106.098 22.485 106.098 21.4745C106.098 20.4635 105.276 19.6416 104.265 19.6416H95.9709V15.5683H100.934V15.5673Z" fill="#858585"/>
<path d="M117.778 39.7617C118.789 39.7617 119.61 38.9393 119.61 37.9288C119.61 36.9178 118.788 36.096 117.778 36.096H112.814V32.0227H120.366C121.377 32.0227 122.199 31.2003 122.199 30.1898C122.199 29.1788 121.377 28.3569 120.366 28.3569H110.858C109.78 28.3569 108.902 29.2345 108.902 30.3132V45.5454C108.902 46.6241 109.78 47.5017 110.858 47.5017H121.108C122.119 47.5017 122.941 46.6793 122.941 45.6688C122.941 44.6578 122.119 43.8359 121.108 43.8359H112.814V39.7626H117.778V39.7617Z" fill="#858585"/>
<path d="M125.797 3.9351C124.719 3.9351 123.841 4.81265 123.841 5.89134V19.3157C123.841 19.6469 123.572 19.9162 123.241 19.9162C122.941 19.9162 122.753 19.7108 122.684 19.5365L117.51 6.41749C116.832 4.70368 115.204 3.5957 113.363 3.5957C110.903 3.5957 108.902 5.59707 108.902 8.05736V21.4611C108.902 22.5398 109.78 23.4173 110.858 23.4173C111.937 23.4173 112.814 22.5398 112.814 21.4611V8.03768C112.814 7.70644 113.083 7.43665 113.415 7.43665C113.715 7.43665 113.903 7.64211 113.971 7.81637L119.145 20.9354C119.823 22.6492 121.452 23.7572 123.293 23.7572C125.752 23.7572 127.753 21.7558 127.753 19.2955V5.89134C127.753 4.81265 126.876 3.9351 125.797 3.9351Z" fill="#858585"/>
<path d="M85.2843 47.6315C86.3629 47.6315 87.2403 46.7539 87.2403 45.6752V30.1818C87.2403 29.1031 86.3629 28.2256 85.2843 28.2256C84.2058 28.2256 83.3284 29.1031 83.3284 30.1818V45.6747C83.3279 46.7539 84.2053 47.6315 85.2843 47.6315Z" fill="#858585"/>
<path d="M149.467 3.9351C148.389 3.9351 147.511 4.81265 147.511 5.89134V19.3157C147.511 19.6469 147.242 19.9162 146.911 19.9162C146.611 19.9162 146.423 19.7108 146.354 19.5365L141.18 6.41749C140.502 4.70368 138.874 3.5957 137.032 3.5957C134.573 3.5957 132.572 5.59707 132.572 8.05736V21.4611C132.572 22.5398 133.449 23.4173 134.528 23.4173C135.606 23.4173 136.484 22.5398 136.484 21.4611V8.03768C136.484 7.70644 136.753 7.43665 137.084 7.43665C137.384 7.43665 137.572 7.64211 137.641 7.81637L142.815 20.9354C143.493 22.6492 145.121 23.7572 146.963 23.7572C149.422 23.7572 151.423 21.7558 151.423 19.2955V5.89134C151.423 4.81265 150.546 3.9351 149.467 3.9351Z" fill="#858585"/>
<path d="M95.9706 39.7617H100.934C101.945 39.7617 102.767 38.9393 102.767 37.9288C102.767 36.9178 101.945 36.096 100.934 36.096H95.9706V32.0227H104.265C105.276 32.0227 106.097 31.2003 106.097 30.1898C106.097 29.1788 105.275 28.3569 104.265 28.3569H94.0147C92.9361 28.3569 92.0587 29.2345 92.0587 30.3132V45.676C92.0587 46.7547 92.9361 47.6322 94.0147 47.6322C95.0932 47.6322 95.9706 46.7547 95.9706 45.676V39.7617Z" fill="#858585"/>
<path d="M70.0867 43.8347H78.1026C79.1134 43.8347 79.9352 44.657 79.9352 45.6675C79.9352 46.6785 79.113 47.5004 78.1026 47.5004H68.1308C67.0522 47.5004 66.1748 46.6229 66.1748 45.5442V30.1818C66.1748 29.1031 67.0522 28.2256 68.1308 28.2256C69.2093 28.2256 70.0867 29.1031 70.0867 30.1818V43.8347Z" fill="#858585"/>
<path d="M164.93 20.1379C166.399 20.1379 167.59 18.9467 167.59 17.4774C167.59 16.008 166.399 14.8169 164.93 14.8169C163.46 14.8169 162.27 16.008 162.27 17.4774C162.27 18.9467 163.46 20.1379 164.93 20.1379Z" fill="#858585"/>
<path d="M155.106 20.854C154.794 21.8794 155.373 22.9634 156.398 23.2754C157.422 23.5865 158.508 23.009 158.819 21.9836L162.773 8.98216C163.132 7.80361 164.122 7.38404 164.929 7.38404C165.737 7.38404 166.727 7.80361 167.086 8.98168L171.04 21.9831C171.352 23.0085 172.437 23.586 173.461 23.2749C174.486 22.9629 175.064 21.8789 174.753 20.8535L170.828 7.95099C170.02 5.29483 167.705 3.5791 164.929 3.5791C162.153 3.5791 159.838 5.29483 159.03 7.95099L155.106 20.854Z" fill="#858585"/>
</g>
<defs>
<clipPath id="clip0_341_2565">
<rect width="174.892" height="51.4959" fill="white"/>
</clipPath>
</defs>
</svg>
