<svg width="213" height="39" viewBox="0 0 213 39" fill="none" xmlns="http://www.w3.org/2000/svg">
<g clip-path="url(#clip0_341_2897)">
<path d="M212.461 25.1736H200.677V36.9295H212.461V25.1736Z" fill="#858585"/>
<path d="M0.000244141 1.62036H9.57807L17.282 26.3369H17.4069L24.5694 1.62036H34.1473L41.8512 26.3369H41.9761L49.3469 1.62036H58.3001L46.2653 36.9296H37.4787L29.0669 12.7947H28.9419L21.4879 36.9296H12.3265L0.000244141 1.62036Z" fill="#858585"/>
<path d="M81.0786 27.8324C79.6211 29.7432 77.4141 30.9894 74.5824 30.9894C71.2926 30.9894 68.7524 29.7017 68.7524 26.6692C68.7524 21.2275 74.8322 21.0613 78.9965 21.0613H82.9942C82.9942 23.803 82.5778 25.7969 81.0786 27.8324ZM76.8727 0.706543C72.9999 0.706543 67.0867 1.95275 64.5465 3.07434V9.30539C66.9617 8.51612 71.8756 7.35299 75.8316 7.35299C81.2036 7.35299 83.7438 9.38847 83.7438 15.578H78.705C74.8322 15.578 70.2932 15.9103 66.7535 17.6135C63.2139 19.3166 60.7153 21.9752 60.7153 27.2093C60.7153 33.9388 66.7952 37.719 73.1249 37.719C77.3308 37.719 81.9115 35.4758 84.0769 31.6541H84.2018L84.1185 36.9712H92.1139V15.6195C92.1556 5.15136 87.6998 0.706543 76.8727 0.706543Z" fill="#858585"/>
<path d="M182.52 27.8324C181.063 29.7432 178.856 30.9894 176.024 30.9894C172.734 30.9894 170.194 29.7017 170.194 26.6692C170.194 21.2275 176.274 21.0613 180.438 21.0613H184.436C184.436 23.803 184.02 25.7969 182.52 27.8324ZM177.565 0.706543C173.692 0.706543 167.779 1.95275 165.239 3.07434V9.30539C167.654 8.51612 172.568 7.35299 176.524 7.35299C181.896 7.35299 184.478 9.38847 184.478 15.578H179.439C175.566 15.578 171.027 15.9103 167.487 17.6135C163.948 19.3166 161.449 21.9752 161.449 27.2093C161.449 33.9388 167.529 37.719 173.859 37.719C178.065 37.719 182.645 35.4758 184.811 31.6541H184.936L184.852 36.9712H192.806V20.1474V15.6195C192.806 5.15136 188.35 0.706543 177.565 0.706543Z" fill="#858585"/>
<path d="M153.828 8.80684V1.62036H127.843V8.80684H134.714V26.3368C134.714 33.3987 138.296 37.4281 145.541 37.4281C148.331 37.4281 151.746 36.8881 154.786 35.8496L154.703 29.3693C153.37 29.8262 150.955 30.4078 148.082 30.4078C143.792 30.4078 143.834 27.6246 143.834 24.2598V8.80684H153.828Z" fill="#858585"/>
<path d="M123.096 0.955785C122.429 0.789624 121.722 0.706543 121.014 0.706543C116.35 0.706543 112.435 3.11588 110.52 7.18683H110.353V1.62043H101.483V36.9712H110.353V18.0289C110.353 16.118 111.519 9.13923 119.889 9.13923C120.93 9.13923 122.013 9.30539 123.096 9.55463V0.955785Z" fill="#858585"/>
</g>
<defs>
<clipPath id="clip0_341_2897">
<rect width="212.461" height="38.2171" fill="white"/>
</clipPath>
</defs>
</svg>
