<svg width="100" height="82" viewBox="0 0 100 82" fill="none" xmlns="http://www.w3.org/2000/svg">
<path d="M79.2474 60.7894H87.679C90.2085 60.7894 91.8948 59.1157 91.8948 56.6052V44.0525C91.8948 40.2867 88.9437 36.9394 85.5711 36.1025C77.9827 34.0104 66.6 31.4999 66.6 31.4999C66.6 31.4999 61.1195 25.642 57.3253 21.8762C55.2174 20.2025 52.6879 18.9473 49.7369 18.9473H20.2263C17.6969 18.9473 15.589 20.621 14.3242 22.7131L8.42214 34.8473C7.86388 36.4633 7.57898 38.1599 7.57898 39.8683V56.6052C7.57898 59.1157 9.2653 60.7894 11.7948 60.7894H20.2263M79.2474 60.7894C79.2474 65.4111 75.4725 69.1578 70.8158 69.1578C66.1592 69.1578 62.3842 65.4111 62.3842 60.7894M79.2474 60.7894C79.2474 56.1676 75.4725 52.4209 70.8158 52.4209C66.1592 52.4209 62.3842 56.1676 62.3842 60.7894M20.2263 60.7894C20.2263 65.4111 24.0013 69.1578 28.6579 69.1578C33.3146 69.1578 37.0895 65.4111 37.0895 60.7894M20.2263 60.7894C20.2263 56.1676 24.0013 52.4209 28.6579 52.4209C33.3146 52.4209 37.0895 56.1676 37.0895 60.7894M37.0895 60.7894H62.3842" stroke="black" stroke-width="2.36842" stroke-linecap="round" stroke-linejoin="round"/>
</svg>
