<svg width="82" height="82" viewBox="0 0 82 82" fill="none" xmlns="http://www.w3.org/2000/svg">
<path d="M33.9473 40.737H47.5263M33.9473 27.158H47.5263M47.5263 71.2896V61.1054C47.5263 59.3047 46.811 57.5778 45.5377 56.3045C44.2644 55.0312 42.5375 54.3159 40.7368 54.3159C38.9361 54.3159 37.2092 55.0312 35.9359 56.3045C34.6626 57.5778 33.9473 59.3047 33.9473 61.1054V71.2896M20.3684 33.9475H13.5789C11.7782 33.9475 10.0513 34.6628 8.77802 35.9361C7.50475 37.2093 6.78943 38.9363 6.78943 40.737V64.5001C6.78943 66.3008 7.50475 68.0277 8.77802 69.301C10.0513 70.5743 11.7782 71.2896 13.5789 71.2896H67.8947C69.6954 71.2896 71.4223 70.5743 72.6956 69.301C73.9688 68.0277 74.6842 66.3008 74.6842 64.5001V30.5527C74.6842 28.7521 73.9688 27.0251 72.6956 25.7519C71.4223 24.4786 69.6954 23.7633 67.8947 23.7633H61.1052M20.3684 71.2896V16.9738C20.3684 15.1731 21.0837 13.4462 22.357 12.1729C23.6302 10.8996 25.3572 10.1843 27.1578 10.1843H54.3157C56.1164 10.1843 57.8434 10.8996 59.1166 12.1729C60.3899 13.4462 61.1052 15.1731 61.1052 16.9738V71.2896" stroke="black" stroke-width="2.36842" stroke-linecap="round" stroke-linejoin="round"/>
</svg>
