<svg width="82" height="82" viewBox="0 0 82 82" fill="none" xmlns="http://www.w3.org/2000/svg">
<path d="M47.5263 71.2894V61.1052C47.5263 59.3045 46.811 57.5775 45.5377 56.3043C44.2644 55.031 42.5375 54.3157 40.7368 54.3157C38.9361 54.3157 37.2092 55.031 35.9359 56.3043C34.6626 57.5775 33.9473 59.3045 33.9473 61.1052V71.2894M61.1052 40.7367H61.1392M61.1052 54.3157H61.1392M20.3684 40.7367H20.4023M20.3684 54.3157H20.4023M74.6842 23.763C74.6842 22.8627 74.3265 21.9992 73.6899 21.3626C73.0532 20.726 72.1898 20.3683 71.2894 20.3683H64.5C63.1124 20.3681 61.7582 19.9428 60.6198 19.1496L44.617 8.01146C43.4788 7.21803 42.1248 6.79236 40.7373 6.79175C39.3499 6.79114 37.9955 7.21563 36.8566 8.00807L20.8538 19.1462C19.7157 19.9406 18.3615 20.3671 16.9736 20.3683H10.1842C9.28383 20.3683 8.42036 20.726 7.78372 21.3626C7.14709 21.9992 6.78943 22.8627 6.78943 23.763V64.4999C6.78943 66.3006 7.50475 68.0275 8.77802 69.3008C10.0513 70.574 11.7782 71.2894 13.5789 71.2894H67.8947C69.6954 71.2894 71.4223 70.574 72.6956 69.3008C73.9688 68.0275 74.6842 66.3006 74.6842 64.4999V23.763ZM47.5263 33.9473C47.5263 37.697 44.4865 40.7367 40.7368 40.7367C36.9871 40.7367 33.9473 37.697 33.9473 33.9473C33.9473 30.1975 36.9871 27.1578 40.7368 27.1578C44.4865 27.1578 47.5263 30.1975 47.5263 33.9473Z" stroke="black" stroke-width="2.37" stroke-linecap="round" stroke-linejoin="round"/>
</svg>
