<svg width="82" height="82" viewBox="0 0 82 82" fill="none" xmlns="http://www.w3.org/2000/svg">
<path d="M61.1052 71.2896C61.1052 64.0869 58.2439 57.1791 53.1509 52.0861C48.0578 46.993 41.15 44.1317 33.9473 44.1317M33.9473 44.1317C26.7446 44.1317 19.8369 46.993 14.7438 52.0861C9.6507 57.1791 6.78943 64.0869 6.78943 71.2896M33.9473 44.1317C43.3216 44.1317 50.921 36.5323 50.921 27.158C50.921 17.7837 43.3216 10.1843 33.9473 10.1843C24.573 10.1843 16.9736 17.7837 16.9736 27.158C16.9736 36.5323 24.573 44.1317 33.9473 44.1317ZM74.6842 67.8949C74.6842 56.4546 67.8947 45.8291 61.1052 40.737C63.337 39.0626 65.1216 36.8639 66.3011 34.3354C67.4806 31.8069 68.0186 29.0267 67.8676 26.2408C67.7165 23.4548 66.8811 20.749 65.4351 18.3629C63.9892 15.9768 61.9773 13.9839 59.5776 12.5606" stroke="black" stroke-width="2.36842" stroke-linecap="round" stroke-linejoin="round"/>
</svg>
