<svg width="82" height="82" viewBox="0 0 82 82" fill="none" xmlns="http://www.w3.org/2000/svg">
<path d="M13.5789 30.5527C11.7782 30.5527 10.0513 31.268 8.77802 32.5413C7.50475 33.8146 6.78943 35.5415 6.78943 37.3422V44.1317C6.78943 45.9323 7.50475 47.6593 8.77802 48.9325C10.0513 50.2058 11.7782 50.9211 13.5789 50.9211H27.1578C28.0582 50.9211 28.9217 51.2788 29.5583 51.9154C30.1949 52.5521 30.5526 53.4155 30.5526 54.3159V67.8948C30.5526 69.6955 31.2679 71.4224 32.5412 72.6957C33.8145 73.969 35.5414 74.6843 37.3421 74.6843H44.1315C45.9322 74.6843 47.6591 73.969 48.9324 72.6957C50.2057 71.4224 50.921 69.6955 50.921 67.8948V54.3159C50.921 53.4155 51.2787 52.5521 51.9153 51.9154C52.5519 51.2788 53.4154 50.9211 54.3157 50.9211H67.8947C69.6954 50.9211 71.4223 50.2058 72.6956 48.9325C73.9688 47.6593 74.6842 45.9323 74.6842 44.1317V37.3422C74.6842 35.5415 73.9688 33.8146 72.6956 32.5413C71.4223 31.268 69.6954 30.5527 67.8947 30.5527H54.3157C53.4154 30.5527 52.5519 30.195 51.9153 29.5584C51.2787 28.9218 50.921 28.0583 50.921 27.158V13.579C50.921 11.7783 50.2057 10.0514 48.9324 8.77814C47.6591 7.50487 45.9322 6.78955 44.1315 6.78955H37.3421C35.5414 6.78955 33.8145 7.50487 32.5412 8.77814C31.2679 10.0514 30.5526 11.7783 30.5526 13.579V27.158C30.5526 28.0583 30.1949 28.9218 29.5583 29.5584C28.9217 30.195 28.0582 30.5527 27.1578 30.5527H13.5789Z" stroke="black" stroke-width="2.36842" stroke-linecap="round" stroke-linejoin="round"/>
</svg>
