<svg width="82" height="82" viewBox="0 0 82 82" fill="none" xmlns="http://www.w3.org/2000/svg">
<path d="M16.736 16.7361L31.1297 31.1298M50.3439 31.1298L64.7376 16.7361M50.3439 50.344L64.7376 64.7377M31.1297 50.344L16.736 64.7377M74.6842 40.7369C74.6842 59.4855 59.4854 74.6843 40.7368 74.6843C21.9882 74.6843 6.78943 59.4855 6.78943 40.7369C6.78943 21.9883 21.9882 6.78955 40.7368 6.78955C59.4854 6.78955 74.6842 21.9883 74.6842 40.7369ZM54.3157 40.7369C54.3157 48.2364 48.2362 54.3159 40.7368 54.3159C33.2374 54.3159 27.1578 48.2364 27.1578 40.7369C27.1578 33.2375 33.2374 27.158 40.7368 27.158C48.2362 27.158 54.3157 33.2375 54.3157 40.7369Z" stroke="black" stroke-width="2.36842" stroke-linecap="round" stroke-linejoin="round"/>
</svg>
