<svg width="82" height="82" viewBox="0 0 82 82" fill="none" xmlns="http://www.w3.org/2000/svg">
<path d="M50.921 71.2895V44.1316C50.921 43.2312 50.5634 42.3678 49.9267 41.7311C49.2901 41.0945 48.4266 40.7368 47.5263 40.7368H33.9474C33.047 40.7368 32.1836 41.0945 31.5469 41.7311C30.9103 42.3678 30.5526 43.2312 30.5526 44.1316V71.2895M10.1842 33.9474C10.184 32.9597 10.3992 31.9839 10.8149 31.088C11.2306 30.1921 11.8368 29.3977 12.5911 28.7602L36.3542 8.39178C37.5797 7.35608 39.1323 6.78784 40.7368 6.78784C42.3413 6.78784 43.894 7.35608 45.1194 8.39178L68.8826 28.7602C69.6369 29.3977 70.2431 30.1921 70.6588 31.088C71.0745 31.9839 71.2897 32.9597 71.2895 33.9474V64.5C71.2895 66.3007 70.5741 68.0276 69.3009 69.3009C68.0276 70.5741 66.3007 71.2895 64.5 71.2895H16.9737C15.173 71.2895 13.4461 70.5741 12.1728 69.3009C10.8995 68.0276 10.1842 66.3007 10.1842 64.5V33.9474Z" stroke="black" stroke-width="2.36842" stroke-linecap="round" stroke-linejoin="round"/>
</svg>
