<svg width="82" height="82" viewBox="0 0 82 82" fill="none" xmlns="http://www.w3.org/2000/svg">
<path d="M20.3685 67.8948C18.5678 67.8948 16.8408 67.1795 15.5676 65.9062C14.2943 64.6329 13.579 62.906 13.579 61.1053V27.158C13.579 25.3573 14.2943 23.6304 15.5676 22.3571C16.8408 21.0838 18.5678 20.3685 20.3685 20.3685H61.1053C62.906 20.3685 64.6329 21.0838 65.9062 22.3571C67.1795 23.6304 67.8948 25.3573 67.8948 27.158V61.1053C67.8948 62.906 67.1795 64.6329 65.9062 65.9062C64.6329 67.1795 62.906 67.8948 61.1053 67.8948M20.3685 67.8948C20.3685 71.6445 23.4082 74.6843 27.1579 74.6843C30.9076 74.6843 33.9474 71.6445 33.9474 67.8948M20.3685 67.8948C20.3685 64.1451 23.4082 61.1053 27.1579 61.1053M61.1053 67.8948C61.1053 71.6445 58.0655 74.6843 54.3158 74.6843C50.5661 74.6843 47.5263 71.6445 47.5263 67.8948M61.1053 67.8948C61.1053 64.1451 58.0655 61.1053 54.3158 61.1053M27.1579 61.1053V13.579C27.1579 11.7783 27.8732 10.0514 29.1465 8.77814C30.4198 7.50487 32.1467 6.78955 33.9474 6.78955H47.5263C49.327 6.78955 51.054 7.50487 52.3272 8.77814C53.6005 10.0514 54.3158 11.7783 54.3158 13.579V61.1053M27.1579 61.1053C30.9076 61.1053 33.9474 64.1451 33.9474 67.8948M54.3158 61.1053C50.5661 61.1053 47.5263 64.1451 47.5263 67.8948M33.9474 67.8948H47.5263" stroke="black" stroke-width="2.17" stroke-linecap="round" stroke-linejoin="round"/>
</svg>
